<svg width="692" height="638" viewBox="0 0 692 638" fill="none" xmlns="http://www.w3.org/2000/svg">
<path d="M239.997 483.008C252.042 516.792 271.717 547.341 297.491 572.283C389.588 661.306 536.941 658.805 625.964 566.708C714.986 474.611 712.486 327.259 620.388 238.236L527.45 334.383C546.248 352.554 557.058 377.447 557.501 403.588C557.945 429.728 547.987 454.975 529.816 473.773C511.646 492.57 486.752 503.38 460.611 503.824C434.471 504.268 409.225 494.309 390.427 476.138C379.498 465.648 371.165 452.755 366.088 438.482L365.457 436.577L364.631 434.543C357.079 415.934 354.266 379.696 351.55 344.652C347.076 286.953 342.003 221.555 315.57 161.15L314.665 159.144C297.316 121.44 272.241 87.8015 241.065 60.405C209.888 33.0085 173.305 12.4655 133.685 0.106079L94.0455 127.815C115.705 134.601 135.705 145.845 152.759 160.823C169.813 175.801 183.544 194.183 193.069 214.785L193.231 215.139C210.453 254.766 214.404 305.706 218.226 354.973L218.227 354.992C221.838 401.54 225.253 445.55 239.997 483.008Z" fill="currentColor"/>
<path d="M49.8033 327.992C57.6154 326.299 64.7503 322.328 70.3056 316.581C73.9943 312.765 76.8953 308.26 78.843 303.323C80.7906 298.386 81.7467 293.114 81.6566 287.807C81.5665 282.5 80.4321 277.263 78.3181 272.395C76.2041 267.527 73.1518 263.123 69.3357 259.434C63.5885 253.879 56.323 250.153 48.458 248.727C40.593 247.3 32.4816 248.239 25.1499 251.422C17.818 254.606 11.5948 259.893 7.26742 266.613C2.94002 273.334 0.702719 281.187 0.838339 289.179C0.974082 297.171 3.47652 304.943 8.0295 311.513C12.5825 318.083 18.9814 323.155 26.4171 326.088C33.8527 329.021 41.9913 329.684 49.8033 327.992Z" fill="currentColor"/>
</svg>
