<svg width="660" height="653" viewBox="0 0 660 653" fill="none" xmlns="http://www.w3.org/2000/svg">
<path d="M395.818 652.366C379.389 652.359 362.996 650.835 346.847 647.812C296.458 638.387 249.901 614.504 212.853 579.075C175.804 543.646 149.865 498.201 138.2 448.284L137.767 446.366C125.446 388.835 132.688 330.756 139.08 279.511C142.961 248.388 146.98 216.204 143.695 198.585L143.351 196.734L143.132 194.943C141.25 181.537 136.264 168.755 128.571 157.616C118.188 142.445 103.312 130.91 86.034 124.632C68.7558 118.354 49.9447 117.649 32.245 122.616L0 7.73201C41.7044 -3.98102 86.0309 -2.32957 126.748 12.4542C167.465 27.2379 202.526 54.4105 227 90.152C245.072 116.554 256.815 146.767 261.316 178.444C267.525 213.834 262.648 252.926 257.492 294.278C252.034 338.053 246.392 383.31 254.38 421.041L254.452 421.361C259.291 442.052 268.631 461.421 281.808 478.092C294.984 494.762 311.673 508.324 330.686 517.811C349.7 527.299 370.571 532.479 391.814 532.983C413.057 533.487 434.15 529.303 453.592 520.728C473.034 512.153 490.348 499.399 504.3 483.372C518.252 467.346 528.501 448.441 534.316 428.003C540.132 407.565 541.371 386.097 537.946 365.125C534.521 344.154 526.516 324.196 514.5 306.67L612.92 239.206C640.045 278.811 655.857 325.062 658.656 372.984C661.456 420.905 651.135 468.683 628.806 511.176C606.476 553.67 572.983 589.27 531.929 614.148C490.876 639.026 443.816 652.239 395.813 652.366" fill="currentColor"/>
<path d="M371.376 347.173C377.259 343.14 384.206 340.943 391.338 340.858C398.47 340.774 405.467 342.806 411.444 346.698C417.421 350.59 422.11 356.167 424.917 362.724C427.725 369.281 428.525 376.523 427.216 383.534C425.908 390.546 422.55 397.012 417.566 402.115C412.583 407.218 406.199 410.729 399.22 412.203C392.242 413.677 384.983 413.049 378.361 410.398C371.739 407.747 366.053 403.192 362.02 397.309C356.613 389.42 354.561 379.706 356.315 370.303C358.07 360.901 363.487 352.581 371.376 347.173Z" fill="currentColor"/>
</svg>
