<svg width="602" height="299" viewBox="0 0 602 299" fill="none" xmlns="http://www.w3.org/2000/svg">
<path d="M420.185 68.9302C420.246 62.7023 422.152 56.6324 425.663 51.488C429.174 46.3435 434.131 42.3556 439.908 40.0285C445.685 37.7013 452.022 37.1395 458.119 38.414C464.215 39.6885 469.797 42.7422 474.158 47.1888C478.518 51.6354 481.463 57.2752 482.619 63.3952C483.774 69.5152 483.089 75.8404 480.65 81.5711C478.211 87.3018 474.128 92.1806 468.916 95.5905C463.704 99.0004 457.598 100.788 451.37 100.728C443.019 100.647 435.041 97.2522 429.193 91.2897C423.345 85.3272 420.104 77.2857 420.185 68.9341" fill="currentColor"/>
<path d="M582.712 263.15C553.375 278.117 521.176 286.636 488.276 288.133C455.376 289.631 422.536 284.073 391.96 271.833L390.372 271.183C343.045 251.198 305.121 216.939 271.654 186.707C251.331 168.347 230.313 149.362 216.067 142.896L214.589 142.223L213.192 141.482C202.655 136.112 191.01 133.278 179.184 133.205C163.401 133.079 147.96 137.803 134.949 146.739C121.939 155.674 111.986 168.39 106.438 183.166L8.81066 146.756C17.7332 122.863 31.6012 101.125 49.5069 82.9638C67.4126 64.8025 88.9522 50.6276 112.715 41.3673C136.479 32.107 161.93 27.97 187.403 29.2271C212.876 30.4843 237.796 37.1072 260.532 48.6624C288.962 61.9377 314.493 85.0037 341.497 109.391C370.077 135.206 399.625 161.898 430.612 175.073L430.892 175.188C447.624 181.85 465.584 184.87 483.575 184.046C501.565 183.221 519.174 178.572 535.227 170.407L582.712 263.15Z" fill="currentColor"/>
</svg>
