<svg width="48" height="43" viewBox="0 0 48 43" fill="none" xmlns="http://www.w3.org/2000/svg">
<path d="M39.0795 21.6771L39.0819 21.6856C39.8207 24.248 40.5594 26.8105 41.2955 29.3737V29.3794C41.385 29.6881 41.475 29.9966 41.5651 30.305C42.0066 31.8178 42.448 33.3298 42.8241 34.8582C43.0272 35.6385 42.912 36.4676 42.5038 37.1629C42.0956 37.8583 41.428 38.3631 40.6476 38.5661C39.8673 38.7692 39.0383 38.654 38.3429 38.2458C37.6475 37.8377 37.1428 37.17 36.9397 36.3897C35.7965 32.4955 34.6756 28.5939 33.5546 24.6923C33.0451 22.9187 32.5355 21.145 32.0238 19.372C30.6609 14.6652 29.299 9.95744 27.938 5.24873C27.0537 2.16864 27.5508 1.15289 30.5095 0H30.7266C31.4976 0.153077 32.2034 0.538022 32.7495 1.1033C33.2956 1.66857 33.656 2.38719 33.7824 3.16295C35.5228 9.34058 37.301 15.5082 39.0792 21.676L39.0795 21.6771Z" fill="currentColor"/>
<path d="M13.0618 18.7291C18.4687 15.7627 23.1143 11.5832 26.6337 6.51878L26.6165 6.51735C26.7325 6.38618 26.8591 6.26482 26.9951 6.15448L35.2811 35.0396C34.5811 34.8117 33.893 34.5792 33.2115 34.349C31.7275 33.8477 30.2749 33.3569 28.7994 32.9467C24.9404 31.921 20.9426 31.5159 16.9562 31.7467C16.2605 31.7781 15.9491 31.6024 15.7548 30.9009C14.8287 27.5568 13.8521 24.2138 12.8769 20.8753L12.6118 19.9677C12.5555 19.8577 12.5225 19.7372 12.5148 19.6138C12.5071 19.4903 12.5249 19.3667 12.5671 19.2505C12.6094 19.1342 12.6751 19.028 12.7602 18.9383C12.8453 18.8486 12.948 18.7774 13.0618 18.7291Z" fill="currentColor"/>
<path d="M11.2718 19.5206L5.06873 21.3363L8.63026 33.8124L14.879 32.0238L11.2718 19.5206Z" fill="currentColor"/>
<path d="M0.220015 26.6222C-0.450005 24.125 0.428593 22.645 2.93438 21.9549H2.94152L3.91727 21.6878L7.53309 34.221C7.21498 34.2922 6.92945 34.3621 6.66372 34.4273C6.21463 34.5373 5.82206 34.6335 5.42446 34.6982C4.63428 34.8164 3.82836 34.6367 3.16329 34.194C2.49822 33.7512 2.0215 33.077 1.82578 32.3024C1.261 30.4204 0.725744 28.527 0.220015 26.6222Z" fill="currentColor"/>
<path d="M8.94454 35.0025L8.94594 35.0074L8.94312 35.0082L8.94454 35.0025Z" fill="currentColor"/>
<path d="M8.94594 35.0074L15.3362 33.1581C15.3584 33.7997 15.3834 34.4328 15.4081 35.0595C15.4833 36.9671 15.5562 38.8156 15.5433 40.6641C15.5419 41.0355 14.8861 41.6184 14.4404 41.7284C14.1429 41.8004 13.8486 41.9265 13.5531 42.0531C12.8059 42.3732 12.0512 42.6965 11.2189 42.157C10.9853 41.9357 10.8277 41.6462 10.7689 41.3298C10.3036 39.7567 9.85265 38.1786 9.38186 36.5312C9.2387 36.0303 9.09372 35.5229 8.94594 35.0074Z" fill="currentColor"/>
<path d="M43.1899 24.7779C44.4706 24.8888 45.7431 25.0797 47 25.3493H46.9914C47.6914 25.4793 48.1629 25.9393 47.9328 26.6351C47.8242 26.9642 47.5308 27.2315 47.2862 27.4544C47.1899 27.5421 47.1012 27.6229 47.0343 27.698C46.5633 27.614 46.1195 27.5411 45.6964 27.4716C44.6297 27.2963 43.6942 27.1426 42.787 26.8879C42.5727 26.7735 42.3918 26.6054 42.2621 26.4001C42.1323 26.1947 42.0582 25.9591 42.047 25.7165C42.1432 25.4765 42.2983 25.2648 42.4981 25.1007C42.6979 24.9366 42.9358 24.8256 43.1899 24.7779Z" fill="currentColor"/>
<path d="M38.424 10.9532C39.154 11.096 42.5256 8.05881 42.5527 7.09593C42.5111 7.04551 42.466 6.97795 42.4158 6.90281C42.2784 6.69688 42.103 6.43408 41.857 6.31162C41.685 6.24125 41.4991 6.21148 41.3138 6.22461C41.1285 6.23774 40.9487 6.29343 40.7884 6.38733C39.6966 7.25285 38.6536 8.17811 37.664 9.15885C37.5521 9.32852 37.4809 9.52179 37.4562 9.72353C37.4314 9.92528 37.4536 10.13 37.5211 10.3217C37.6194 10.4843 37.7511 10.6242 37.9075 10.7321C38.0639 10.8399 38.2414 10.9134 38.4283 10.9475L38.424 10.9532Z" fill="currentColor"/>
<path d="M42.2203 18.2955C41.9393 18.0919 41.6585 17.8885 41.607 17.6377L41.6013 17.6391C41.5758 17.4086 41.6085 17.1754 41.6964 16.9608C41.7842 16.7462 41.9244 16.557 42.1041 16.4105C43.4731 15.8925 44.8796 15.4798 46.3114 15.1762C46.5971 15.1176 47.2229 15.6562 47.3114 16.0119C47.3381 16.2382 47.3068 16.4675 47.2206 16.6784C47.1344 16.8893 46.9961 17.0748 46.8186 17.2176C45.8558 17.5961 44.8597 17.8898 43.7962 18.2034C43.3984 18.3207 42.9912 18.4408 42.5727 18.5691C42.4683 18.4751 42.3443 18.3853 42.2203 18.2955Z" fill="currentColor"/>
</svg>
