<svg width="48" height="48" viewBox="0 0 48 48" fill="none" xmlns="http://www.w3.org/2000/svg">
<path d="M1.01506 23.2988C0.939101 25.3496 1.08777 27.404 1.45932 29.4252C1.70339 30.9952 2.25951 32.5005 3.09485 33.8521C3.93019 35.2037 5.02783 36.3743 6.32301 37.2949C7.30002 37.9852 8.37001 38.5335 9.50099 38.9234L9.50629 38.9252H9.50907C9.4991 38.9128 9.48946 38.9003 9.47986 38.8879C9.46142 38.864 9.4431 38.8402 9.42304 38.8183C8.11984 37.4092 7.05583 35.7965 6.27306 34.0441C5.40524 32.1023 4.81262 30.0506 4.51109 27.9483C4.46802 27.648 4.4309 27.3466 4.39976 27.0444C4.36921 26.7964 4.34266 26.5481 4.32012 26.2996C4.10947 23.9776 4.24816 21.6358 4.7328 19.3523C5.56252 15.4385 7.51892 11.8527 10.3611 9.03654C12.9588 6.38528 16.2747 4.58225 19.874 3.8308C20.6435 3.67014 21.4259 3.55755 22.2171 3.49502C25.511 3.22261 28.8187 3.82071 31.8085 5.22935C35.0528 6.72546 37.8587 9.02927 39.9574 11.9202C42.0561 14.8111 43.3775 18.1923 43.795 21.7401C44.1099 24.4611 43.874 27.2177 43.1012 29.8456C42.1299 33.244 40.3578 36.3599 37.9336 38.9321C36.0571 41.0276 33.7715 42.6842 31.2398 43.8144C29.5869 44.551 27.8293 45.0632 26.0123 45.3269C23.9413 45.6329 21.8293 45.5039 19.8109 44.9481C18.4076 44.5977 17.097 43.9468 15.9699 43.0404C15.1084 42.3704 14.472 41.4535 14.1456 40.4122C13.8193 39.3709 13.8187 38.2547 14.1438 37.213C14.2026 36.9795 14.2797 36.7505 14.3567 36.5216C14.3894 36.4245 14.4221 36.3275 14.4533 36.2301C14.9694 37.8132 16.022 39.1669 17.4297 40.0573L17.435 40.043L17.4422 40.0476L20.8475 30.7003C20.5542 30.5889 20.3064 30.3831 20.1431 30.1153C19.9798 29.8475 19.9103 29.533 19.9455 29.2213C19.9439 28.8231 19.9783 28.4256 20.0482 28.0336C20.6173 24.9156 21.6069 21.8892 22.99 19.0373C23.352 18.3069 23.7788 17.6104 24.2653 16.9561C24.3115 16.8813 24.3639 16.8111 24.4217 16.746C24.5924 16.5583 24.8083 16.4149 25.0509 16.3308C25.3825 16.2158 25.7436 16.2186 26.0734 16.3387L26.0793 16.3225L26.0858 16.3249L29.555 6.73612C29.0215 6.70321 28.4865 6.70692 27.9536 6.74722C26.1951 7.05387 24.5615 7.85852 23.2467 9.06566C22.6496 9.59249 22.0851 10.1528 21.5555 10.7434C20.3906 12.0401 19.3947 13.4832 18.594 15.0387C16.6155 18.6635 15.1811 22.5595 14.3367 26.6018C13.8248 28.8437 13.6842 31.1545 13.9204 33.4419C13.9645 33.776 13.8909 34.115 13.7122 34.4007C12.8205 35.8601 12.2013 37.4693 11.8847 39.1499C11.6211 40.491 11.7837 41.8809 12.3496 43.125C13.0871 44.5761 14.2991 45.731 15.784 46.398C17.7987 47.3685 19.9956 47.9028 22.231 47.9659C26.3698 48.185 30.4869 47.2374 34.1134 45.2312C37.579 43.3618 40.5029 40.6291 42.6016 37.2977C45.1199 33.3694 46.4481 28.8284 46.4727 24.2163C46.4801 22.8935 46.3803 21.5648 46.1706 20.243C45.7767 17.4576 44.891 14.7644 43.5549 12.2887C41.5926 8.51096 38.6182 5.35337 34.964 3.16896C32.3894 1.57385 29.5023 0.550073 26.4978 0.166849C23.4934 -0.216376 20.4417 0.0498902 17.5491 0.947642C11.8691 2.62111 7.08522 6.47928 4.24709 11.6755C3.37806 13.1792 2.67827 14.7682 2.1567 16.4133C2.00104 16.9043 1.86125 17.4002 1.73758 17.9004C1.41483 19.2057 1.2018 20.5396 1.10272 21.8886C1.06167 22.3582 1.03246 22.8284 1.01506 23.2988Z" fill="currentColor"/>
<path d="M29.3426 17.5333C29.4895 17.6008 29.6493 17.6355 29.811 17.6348L29.8221 17.6348C29.9842 17.6339 30.1441 17.5975 30.2906 17.5282C30.4372 17.4589 30.5668 17.3584 30.6703 17.2337C30.7738 17.109 30.8488 16.9631 30.8899 16.8063C31.0914 16.2517 31.2917 15.7019 31.492 15.1522L31.4924 15.1512L31.7932 14.3255C32.3807 12.7161 32.9676 11.1066 33.5541 9.49716C33.6187 9.35357 33.652 9.19787 33.6518 9.04042C33.6516 8.88297 33.6179 8.72736 33.553 8.58393C33.488 8.4405 33.3933 8.31253 33.275 8.20852C33.1568 8.10451 33.0178 8.02684 32.8673 7.98067C32.735 7.92798 32.6006 7.87957 32.4682 7.83185L32.466 7.83107C32.4144 7.81245 32.363 7.79395 32.3122 7.77533L30.2793 7.03859L30.2737 7.0372L30.2696 7.03859L26.788 16.5912C26.8268 16.6076 26.8617 16.6228 26.8941 16.637C26.9498 16.6613 26.9983 16.6824 27.0474 16.7009L29.3426 17.5333Z" fill="currentColor"/>
<path d="M21.5594 30.9603L21.5621 30.9528L21.558 30.9598L21.5594 30.9603Z" fill="currentColor"/>
<path d="M21.5604 30.9607L21.5594 30.9603L18.2429 40.0476L18.2305 40.0805C18.1798 40.214 18.1355 40.3307 18.3511 40.3987C18.7663 40.5415 19.1788 40.6922 19.5913 40.8427C19.9796 40.9845 20.3685 41.1265 20.7587 41.2617C20.8996 41.3208 21.0514 41.3496 21.2043 41.3461C21.3571 41.3426 21.5074 41.307 21.6456 41.2416C21.7837 41.1761 21.9065 41.0823 22.0059 40.9662C22.0645 40.8979 22.1142 40.8227 22.154 40.7425C22.1837 40.684 22.2081 40.6228 22.2268 40.5596C22.3081 40.3378 22.3893 40.116 22.4705 39.8941C23.1874 37.943 23.9 35.9876 24.6084 34.028C24.6934 33.7938 24.7784 33.5596 24.8633 33.3254C24.9652 33.0553 24.9558 32.7558 24.8372 32.4926C24.7186 32.2294 24.5004 32.0239 24.2306 31.9213C24.0775 31.8575 23.9208 31.8018 23.7641 31.7461C23.7063 31.7256 23.6485 31.705 23.5909 31.6841L21.5636 30.952L21.5663 30.9445L21.5621 30.9515L21.5636 30.952L21.5604 30.9607Z" fill="currentColor"/>
</svg>
