<svg width="48" height="48" viewBox="0 0 48 48" fill="none" xmlns="http://www.w3.org/2000/svg">
    <path d="M43.557,7.822l-.082,14.44s-.242,7.824-8.629,7.824H23.069l-5.243,5.4,8.63.08L38.312,47.83l.4-12.582s9.275.645,9.275-7.582V15.486a8.472,8.472,0,0,0-4.435-7.664M33.312,28.069a7.743,7.743,0,0,0,7.744-7.742V7.744A7.744,7.744,0,0,0,33.312,0H7.744A7.744,7.744,0,0,0,0,7.744V20.326a7.743,7.743,0,0,0,7.744,7.742h.65L8.47,39.523l12.8-11.454Z" transform="translate(0 0.17)" fill="currentColor" />
</svg>
