<svg width="49" height="48" viewBox="0 0 49 48" fill="none" xmlns="http://www.w3.org/2000/svg">
<path d="M24.1072 0C19.3604 0 14.7203 1.40758 10.7735 4.04473C6.82672 6.68188 3.75058 10.4302 1.93408 14.8156C0.117577 19.201 -0.357704 24.0266 0.568342 28.6822C1.49439 33.3377 3.78017 37.6141 7.13663 40.9706C10.4931 44.327 14.7695 46.6128 19.425 47.5388C24.0806 48.4649 28.9062 47.9896 33.2916 46.1731C37.677 44.3566 41.4253 41.2805 44.0625 37.3337C46.6996 33.3869 48.1072 28.7468 48.1072 24C48.1072 17.6348 45.5786 11.5303 41.0778 7.02944C36.5769 2.52856 30.4724 0 24.1072 0ZM21.0368 38.6192L16.04 33.6208L25.6592 24L16.04 14.3808L21.0368 9.384L35.656 24L21.0368 38.6192Z" fill="currentColor"/>
</svg>
