<svg width="48" height="48" viewBox="0 0 48 48" fill="none" xmlns="http://www.w3.org/2000/svg">
<path d="M24.0432 37.3712C23.7294 37.3715 23.4226 37.4649 23.1618 37.6395C22.901 37.8141 22.6979 38.0621 22.578 38.3521C22.4581 38.6422 22.4269 38.9612 22.4883 39.269C22.5497 39.5768 22.701 39.8595 22.9231 40.0813C23.1451 40.3031 23.4279 40.4541 23.7358 40.5152C24.0436 40.5763 24.3626 40.5448 24.6526 40.4246C24.9425 40.3044 25.1903 40.101 25.3646 39.84C25.539 39.5791 25.632 39.2722 25.632 38.9584C25.6316 38.5373 25.464 38.1336 25.1661 37.836C24.8682 37.5384 24.4643 37.3712 24.0432 37.3712ZM24.0432 10.624C24.3574 10.624 24.6645 10.5309 24.9257 10.3563C25.187 10.1818 25.3906 9.9338 25.5109 9.64358C25.6312 9.35335 25.6628 9.03398 25.6016 8.72583C25.5404 8.41767 25.3893 8.13458 25.1672 7.91231C24.9452 7.69005 24.6622 7.53861 24.3542 7.47712C24.0461 7.41564 23.7267 7.44687 23.4363 7.56688C23.146 7.68689 22.8977 7.89028 22.7229 8.15135C22.5482 8.41241 22.4547 8.71943 22.4544 9.0336C22.4542 9.24238 22.4951 9.44915 22.5749 9.6421C22.6546 9.83505 22.7716 10.0104 22.9192 10.1581C23.0667 10.3058 23.242 10.423 23.4348 10.5029C23.6277 10.5829 23.8344 10.624 24.0432 10.624ZM24 0C19.2533 0 14.6131 1.40758 10.6663 4.04473C6.71955 6.68188 3.64341 10.4302 1.8269 14.8156C0.0103989 19.201 -0.464881 24.0266 0.461164 28.6822C1.38721 33.3377 3.67299 37.6141 7.02945 40.9706C10.3859 44.327 14.6623 46.6128 19.3178 47.5388C23.9734 48.4649 28.799 47.9896 33.1844 46.1731C37.5698 44.3566 41.3181 41.2805 43.9553 37.3337C46.5924 33.3869 48 28.7468 48 24C48 17.6348 45.4714 11.5303 40.9706 7.02944C36.4697 2.52856 30.3652 0 24 0ZM24 42.1968C20.401 42.1968 16.8829 41.1296 13.8904 39.1301C10.898 37.1306 8.56563 34.2886 7.18836 30.9636C5.81109 27.6386 5.45073 23.9798 6.15286 20.45C6.85498 16.9201 8.58806 13.6778 11.1329 11.1329C13.6778 8.58805 16.9202 6.85497 20.45 6.15285C23.9798 5.45072 27.6386 5.81108 30.9636 7.18835C34.2887 8.56562 37.1306 10.898 39.1301 13.8904C41.1296 16.8828 42.1968 20.401 42.1968 24C42.1964 28.826 40.2791 33.4541 36.8666 36.8666C33.4542 40.2791 28.826 42.1964 24 42.1968ZM9.08161 22.4C8.7674 22.3997 8.46014 22.4925 8.1986 22.6666C7.93707 22.8407 7.73297 23.0885 7.61208 23.3785C7.49118 23.6685 7.4589 23.9878 7.51931 24.2962C7.57972 24.6045 7.73012 24.8881 7.95151 25.111C8.17291 25.334 8.45539 25.4864 8.76331 25.5489C9.07122 25.6115 9.39077 25.5815 9.68164 25.4626C9.9725 25.3438 10.2216 25.1414 10.3976 24.8811C10.5736 24.6208 10.6685 24.3142 10.6704 24C10.6715 23.7905 10.6312 23.5829 10.5518 23.389C10.4725 23.1952 10.3557 23.0189 10.2081 22.8702C10.0605 22.7216 9.88502 22.6036 9.69171 22.5229C9.49841 22.4422 9.29108 22.4004 9.08161 22.4ZM39.0016 22.4C38.687 22.3997 38.3793 22.4927 38.1176 22.6673C37.8558 22.8418 37.6518 23.0901 37.5311 23.3807C37.4105 23.6712 37.3788 23.9911 37.44 24.2997C37.5012 24.6083 37.6525 24.8918 37.8749 25.1144C38.0972 25.337 38.3806 25.4886 38.6892 25.5501C38.9977 25.6116 39.3176 25.5802 39.6083 25.4599C39.899 25.3396 40.1474 25.1357 40.3223 24.8741C40.4971 24.6126 40.5904 24.305 40.5904 23.9904C40.5904 23.5697 40.4237 23.1661 40.1269 22.8681C39.83 22.57 39.4271 22.4017 39.0064 22.4M31.4256 15.1088L23.84 22.6944L19.608 18.4656C19.2685 18.1261 18.8081 17.9354 18.328 17.9354C17.8479 17.9354 17.3875 18.1261 17.048 18.4656C16.7085 18.8051 16.5178 19.2655 16.5178 19.7456C16.5178 20.2257 16.7085 20.6861 17.048 21.0256L22.712 26.6752C22.9195 26.8773 23.1827 27.0129 23.4678 27.0645C23.7528 27.1161 24.0468 27.0814 24.312 26.9648C25.3344 26.4752 33.9872 17.672 33.9872 17.672C34.3267 17.3325 34.5174 16.8721 34.5174 16.392C34.5174 15.9119 34.3267 15.4515 33.9872 15.112C33.6477 14.7725 33.1873 14.5818 32.7072 14.5818C32.2271 14.5818 31.7667 14.7725 31.4272 15.112" fill="currentColor"/>
</svg>
