<svg width="48" height="48" viewBox="0 0 48 48" fill="none" xmlns="http://www.w3.org/2000/svg">
<path d="M20.3593 24.9215C21.4929 25.3973 22.7044 25.6605 23.9333 25.698C24.8594 25.7119 25.7804 25.5597 26.6528 25.2487L35.9065 22.1722C38.7114 21.2407 41.5152 20.3066 44.318 19.3698L46.617 18.6028C46.9635 18.4884 47.2938 18.3298 47.5998 18.1309C47.7168 18.082 47.8171 18.0002 47.8883 17.8954C47.9596 17.7906 47.9989 17.6672 48.0013 17.5405C48.0037 17.4137 47.9691 17.289 47.9019 17.1816C47.837 17.0779 47.7444 16.9946 47.6346 16.9411L20.3593 24.9215Z" fill="currentColor"/>
<path d="M47.6222 16.9351C47.4757 16.8331 47.3218 16.7425 47.162 16.6642C47.0046 16.5869 46.8413 16.5214 46.6736 16.4685C45.917 16.2222 45.1542 15.9952 44.3913 15.7681C44.1799 15.7052 43.9677 15.6421 43.7565 15.5787L26.3609 10.3561C26.3327 10.3474 26.3045 10.3388 26.2762 10.3304C24.7819 9.88462 23.1885 9.88927 21.6958 10.3448C14.9429 12.3642 8.1938 14.3908 1.44848 16.4244C1.41362 16.4353 1.37893 16.4466 1.34442 16.4584C1.00093 16.5758 0.67512 16.74 0.376276 16.9467C0.265015 16.9955 0.170272 17.0755 0.103492 17.177C0.0367121 17.2785 0.000751051 17.3972 -4.74428e-05 17.5187C-0.000845936 17.6402 0.0335523 17.7593 0.0989924 17.8617C0.164433 17.9641 0.258115 18.0453 0.368725 18.0956C0.666117 18.3077 0.993593 18.4739 1.34025 18.5889C7.32646 20.5891 13.3149 22.5833 19.3056 24.5714L20.3593 24.9215L47.6222 16.9351Z" fill="currentColor"/>
<path d="M22.4219 37.9956C22.9669 38.0258 23.5125 38.0405 24.0579 38.0396C25.2553 38.0377 26.4519 37.9609 27.6407 37.8093C30.0827 37.5296 32.4713 36.8976 34.7321 35.933C35.9398 35.4595 37.0426 34.7531 37.9777 33.854C38.1829 33.6546 38.3447 33.415 38.4529 33.1501C38.4701 33.1081 38.4859 33.0656 38.5003 33.0227C38.5772 32.7939 38.6139 32.5531 38.6081 32.3112C38.5923 30.174 38.5944 28.0368 38.5966 25.8996C38.5973 25.16 38.5981 24.4203 38.5981 23.6807V23.2566C38.538 23.2735 38.4851 23.2876 38.4369 23.3004C38.3557 23.322 38.2876 23.3402 38.2205 23.3623C37.2416 23.6878 36.2623 24.0128 35.2829 24.3377L35.2814 24.3382C32.4454 25.2791 29.6089 26.2202 26.7787 27.1779C25.0187 27.8057 23.0974 27.8159 21.3308 27.2069C19.1545 26.4671 16.9667 25.7432 14.7792 25.0194L14.778 25.019C13.8846 24.7234 12.9913 24.4278 12.0988 24.1312C11.2229 23.8443 10.347 23.5561 9.41953 23.2503L9.41324 23.249V23.6618C9.41324 24.3896 9.41371 25.1174 9.41418 25.8453C9.4156 28.0287 9.41702 30.2125 9.40569 32.3955C9.39581 32.8913 9.57591 33.3722 9.90907 33.7395C10.4964 34.3854 11.1972 34.9181 11.9767 35.3113C15.2161 36.97 18.7841 37.8869 22.4219 37.9956Z" fill="currentColor"/>
<path d="M45.2578 21.0341V21.4683L45.2578 21.4708C45.2578 21.7715 45.2577 22.0721 45.2575 22.3728C45.2574 22.5308 45.2573 22.6888 45.2572 22.8467C45.2561 24.3976 45.255 25.9446 45.2664 27.4915C45.2665 27.5002 45.2666 27.5089 45.2666 27.5177C45.281 27.7861 45.3441 28.0496 45.4529 28.2954C45.4966 28.4056 45.5415 28.5155 45.5871 28.6251C45.6832 28.8549 45.7822 29.0837 45.8811 29.3124C45.9698 29.5172 46.0584 29.722 46.1449 29.9275C46.2967 30.2869 46.4421 30.6485 46.5691 31.0162C46.6871 31.332 46.7462 31.6648 46.7452 31.9985C46.7448 32.2097 46.7203 32.4212 46.6715 32.6289C46.5459 33.1639 46.2646 33.6498 45.8631 34.0252C45.4244 34.441 44.9558 34.8241 44.4612 35.1716C44.4058 35.2018 44.3437 35.2176 44.2807 35.2176C44.2176 35.2176 44.1554 35.2018 44.1 35.1716C44.0221 35.1132 43.9449 35.0539 43.8683 34.9938C43.3694 34.6083 42.8973 34.1892 42.4552 33.7395C42.1237 33.3607 41.9059 32.896 41.8269 32.3988C41.7478 31.9017 41.8108 31.3923 42.0085 30.9294C42.2145 30.3606 42.4582 29.8034 42.7012 29.248C42.8426 28.9247 42.9839 28.6018 43.1172 28.2778C43.2188 28.0523 43.2777 27.8099 43.2909 27.563C43.3034 25.7173 43.3034 23.8715 43.2909 22.0258C43.2819 21.974 43.2833 21.9209 43.2951 21.8697C43.3069 21.8185 43.3288 21.7701 43.3595 21.7275C43.3682 21.7154 43.3776 21.7038 43.3875 21.6929C43.4147 21.6608 43.4468 21.6332 43.4827 21.6112C43.5276 21.5838 43.5774 21.5656 43.6294 21.5577C43.98 21.4557 44.3266 21.3402 44.6969 21.2168C44.8795 21.1559 45.0679 21.0931 45.2654 21.0291L45.2578 21.0341Z" fill="currentColor"/>
</svg>
