<svg width="48" height="48" viewBox="0 0 48 48" fill="none" xmlns="http://www.w3.org/2000/svg">
<path fill-rule="evenodd" clip-rule="evenodd" d="M23.9737 36.3295C21.5433 36.3255 19.169 35.598 17.1534 34.2398C15.1379 32.8816 13.5722 30.9541 12.656 28.7029C11.7398 26.4517 11.5145 23.9787 12.0088 21.599C12.5031 19.2193 13.6946 17.0406 15.4315 15.3405C17.1684 13.6404 19.3721 12.4958 21.7619 12.0526C24.1516 11.6094 26.6192 11.8876 28.8502 12.8518C31.0813 13.816 32.9748 15.4225 34.2896 17.4667C35.6043 19.5109 36.2808 21.9002 36.2328 24.3302C36.1819 27.5418 34.8658 30.6036 32.5704 32.8504C30.2749 35.0971 27.1857 36.3474 23.9737 36.3295ZM23.9627 32.1087C25.8044 32.1174 27.5934 31.4945 29.0313 30.3437C30.4692 29.1929 31.4691 27.5839 31.8641 25.785C33.3618 18.5868 24.8359 13.0576 18.9861 17.7897C13.2718 22.4125 16.5448 32.0893 23.9599 32.1087H23.9627Z" fill="currentColor"/>
<path d="M36.7882 8.51628C40.4233 8.51628 40.3804 14.1491 36.7717 14.1173C33.1214 14.0842 33.1532 8.34773 36.7882 8.51628Z" fill="currentColor"/>
<path fill-rule="evenodd" clip-rule="evenodd" d="M0.138181 24.8179C0.138181 23.7093 0.104344 22.5622 0.0699166 21.3952C-0.0709572 16.6198 -0.22171 11.5094 1.89559 7.32257C4.06749 3.02299 8.31042 0.86767 12.972 0.403448C19.163 -0.0726179 25.3789 -0.134929 31.5782 0.21693C36.4857 0.392395 41.371 1.06248 44.6814 5.0885C48.0324 9.167 47.9778 14.8315 47.9286 19.943C47.9232 20.5006 47.9179 21.0516 47.9171 21.5932C47.9171 22.4499 47.9206 23.3071 47.9241 24.1644C47.9333 26.3998 47.9424 28.637 47.8895 30.8708C47.9543 33.5918 47.6286 36.3081 46.9224 38.9366C46.1882 41.1519 44.859 43.1227 43.0802 44.6334C41.3014 46.1442 39.1415 47.1367 36.8366 47.5026C33.8507 47.9046 30.8374 48.0659 27.8257 47.9848C24.8694 48.0181 21.9132 47.9779 18.958 47.9378L18.2442 47.9282C12.6929 47.8549 6.734 47.5717 3.08792 42.7471C-0.124228 38.4944 -0.00681847 32.7701 0.100599 27.5329C0.119546 26.6092 0.138181 25.7006 0.138181 24.8179ZM4.39286 26.1913C4.38768 28.3159 4.3825 30.4401 4.42394 32.5674C4.32848 34.9554 4.84096 37.3286 5.91332 39.4644C8.38924 43.711 13.4999 43.7103 17.9266 43.7097C18.4253 43.7097 18.9157 43.7096 19.3923 43.7156C20.0783 43.7243 20.7661 43.7347 21.4553 43.7451C25.7995 43.8107 30.1969 43.8771 34.51 43.5277C38.3909 43.2127 41.7068 41.4705 42.9254 37.5868C43.4967 35.3313 43.7203 33.0018 43.5885 30.6787C43.5941 28.0758 43.5987 25.4728 43.6023 22.8699C43.6023 21.9478 43.6394 20.9736 43.6775 19.9727C43.8221 16.1745 43.9814 11.9908 42.1848 8.80227C39.9632 4.85915 35.3486 4.51927 31.3032 4.45572C26.2078 4.37006 21.1111 4.40736 16.0157 4.50269C11.6166 4.58421 6.95782 5.46982 5.2391 10.0886C4.04104 13.306 4.18701 17.102 4.32479 20.6847C4.36941 21.8451 4.41317 22.9831 4.41013 24.0719L4.39631 24.0663C4.39631 24.7747 4.39458 25.4832 4.39286 26.1913Z" fill="currentColor"/>
</svg>
