<svg width="48" height="48" viewBox="0 0 48 48" fill="none" xmlns="http://www.w3.org/2000/svg">
<path d="M46.064 6.61764e-07H1.9344C1.42137 6.61764e-07 0.929344 0.203803 0.566573 0.566573C0.203803 0.929344 6.61765e-07 1.42137 6.61765e-07 1.9344V45.4832C-0.000209565 45.7374 0.04967 45.9891 0.146789 46.224C0.243907 46.4588 0.386361 46.6723 0.566007 46.8521C0.745654 47.0319 0.958972 47.1745 1.19377 47.2718C1.42856 47.3691 1.68024 47.4192 1.9344 47.4192H46.064C46.5775 47.4192 47.0699 47.2152 47.433 46.8522C47.796 46.4891 48 45.9967 48 45.4832V1.9344C48 1.68024 47.9499 1.42856 47.8526 1.19377C47.7553 0.958972 47.6127 0.745654 47.4329 0.566007C47.2531 0.386361 47.0396 0.243907 46.8048 0.146789C46.5699 0.04967 46.3182 -0.000209565 46.064 6.61764e-07ZM14.584 39.4336H7.384V18.4832H14.584V39.4336ZM11.0928 15.6928C10.0409 15.7221 9.0204 15.3329 8.25518 14.6105C7.48997 13.8882 7.04258 12.8918 7.0112 11.84C7.04174 10.7878 7.48882 9.7907 8.25418 9.06795C9.01953 8.34519 10.0405 7.95589 11.0928 7.9856C12.1448 7.95632 13.1654 8.34582 13.9304 9.06853C14.6954 9.79123 15.1423 10.788 15.1728 11.84C15.1418 12.8918 14.6949 13.8884 13.9299 14.611C13.165 15.3336 12.1447 15.7232 11.0928 15.6944M40.9664 28.4944V39.432H33.7664V27.6544H33.7824C33.696 24.3808 31.44 23.28 30.5216 23.28C27.3648 23.28 26.3856 24.8496 26.0784 25.8944V39.4336H18.88V18.4832H26.08V20.8416C28.3056 17.592 31.2816 17.7792 33.2032 17.7792C41.7504 18.6704 40.9696 28.4 40.9632 28.4992" fill="currentColor"/>
</svg>
