<svg width="48" height="48" viewBox="0 0 48 48" fill="none" xmlns="http://www.w3.org/2000/svg">
    <path d="M23.4,13.518h7.675a.953.953,0,0,0,0-1.906H23.4a.953.953,0,0,0,0,1.906m0-4.128h7.675a.953.953,0,0,0,0-1.906H23.4a.953.953,0,0,0,0,1.906m0,7.938h7.675a.952.952,0,1,0,0-1.9H23.4a.952.952,0,1,0,0,1.9M41.951.022A.863.863,0,0,0,41.779,0c-17.4,0,2.09,0-23.693,0-.1,0-.182,0-.254,0A6.846,6.846,0,0,0,12.5,2.568a.845.845,0,0,0,.187,1.179.828.828,0,0,0,.5.162.845.845,0,0,0,.683-.349l.043-.054a5.21,5.21,0,0,1,3.918-1.818c.066,0,.12,0,.165,0l.016,0H36.744A6.311,6.311,0,0,0,34.7,6.338V7.32h.006v22.6a3.941,3.941,0,0,1-.974,1.973,5.817,5.817,0,0,1-3.957,1.72c-4.454-.163-4.507-5.69-4.507-5.69s-.035-.037-12.117-.053V21.526a.844.844,0,0,0-1.688,0v6.336c-3.085,0-6.851,0-11.466,0-.053,7.278,5.043,7.421,5.043,7.421l22.547,0c.44.032,1.066.075,1.083.075,3.432,0,5.514-1.226,6.571-2.56A5.415,5.415,0,0,0,36.4,30V7.32H48V6.338A6.325,6.325,0,0,0,41.951.022M16.627,12.285l-4.373,4.373,7.722,3.248ZM2.679,7.082l8.744,8.744L15.8,11.453,7.05,2.709ZM1.634,6.037,6.007,1.666l-.5-.5A3.092,3.092,0,0,0,1.133,5.538Z" transform="translate(0 6.322)" fill="currentColor"/>
</svg>
