<svg width="48" height="48" viewBox="0 0 48 48" fill="none" xmlns="http://www.w3.org/2000/svg">
<path d="M22.5221 34.9915L19.3221 29.254C19.3221 29.254 16.8741 24.9341 14.5222 19.7533C14.0711 18.6856 14.0333 17.4883 14.4159 16.3942C14.7985 15.3 15.5744 14.3873 16.5926 13.8334C16.5926 13.8334 16.311 7.71189 16.1254 0C8.59906 1.31518 7.18788 4.51354 6.80389 5.45432C4.17673 15.3326 8.69346 27.9372 10.2934 30.6652C19.6997 46.3754 28.5412 48.2553 29.9524 47.9753C33.1767 47.6558 36.2751 46.5576 38.981 44.7754L28.354 36.2139C23.9316 37.9083 22.5221 34.9899 22.5221 34.9899M21.5797 11.4702C21.5797 11.4702 21.3925 4.23354 21.3925 2.25597C21.3925 0.278396 17.6309 0 17.6309 0L17.8181 13.2622C19.8885 14.1102 21.5797 11.475 21.5797 11.475M40.8642 39.3147C37.1011 36.3995 33.9027 33.7659 33.9027 33.7659C33.9027 33.7659 32.2099 32.3547 29.3892 35.0827L40.2994 43.641C40.2994 43.641 42.1794 40.537 40.8642 39.3211" fill="currentColor"/>
</svg>
