<svg width="48" height="48" viewBox="0 0 48 48" fill="none" xmlns="http://www.w3.org/2000/svg">
<path d="M46.9728 41.7348L35.6995 29.8938C38.2936 25.8236 39.2828 20.9303 38.4742 16.1683C37.6656 11.4062 35.1172 7.11703 31.3261 4.13722C27.5349 1.15742 22.7728 -0.299274 17.9687 0.0512528C13.1646 0.401779 8.6629 2.53439 5.34173 6.03313C2.02056 9.53188 0.118065 14.1458 0.00531363 18.9751C-0.107438 23.8043 1.57764 28.5025 4.73188 32.1533C7.88613 35.8041 12.2833 38.1457 17.0658 38.7213C21.8483 39.2969 26.6732 38.0654 30.5993 35.2668L41.6312 46.8529C42.3079 47.5639 43.2386 47.9761 44.2185 47.999C45.1983 48.0218 46.1471 47.6534 46.8561 46.9747C47.5651 46.296 47.9762 45.3627 47.999 44.38C48.0218 43.3973 47.6544 42.4458 46.9776 41.7348M5.97252 19.4461C5.97284 16.7856 6.75983 14.1848 8.23399 11.9728C9.70815 9.76077 11.8033 8.03678 14.2544 7.01885C16.7056 6.00091 19.4026 5.73474 22.0046 6.25398C24.6066 6.77323 26.9966 8.05458 28.8725 9.936C30.7483 11.8174 32.0257 14.2144 32.5432 16.8239C33.0607 19.4334 32.7949 22.1381 31.7796 24.5961C30.7643 27.0541 29.0449 29.155 26.839 30.6331C24.6331 32.1112 22.0397 32.9002 19.3867 32.9002C17.625 32.9002 15.8805 32.5522 14.2529 31.876C12.6254 31.1999 11.1465 30.2088 9.90087 28.9595C8.65523 27.7101 7.66719 26.227 6.99316 24.5946C6.31913 22.9623 5.97231 21.2129 5.97252 19.4461Z" fill="currentColor"/>
</svg>
