<svg width="48" height="48" viewBox="0 0 48 48" fill="none" xmlns="http://www.w3.org/2000/svg">
<path fill-rule="evenodd" clip-rule="evenodd" d="M46.3427 23.7948C46.0442 24.4454 45.6087 25.024 45.0659 25.4907C45.7894 25.9377 46.387 26.5626 46.8013 27.3053C47.2155 28.0479 47.433 28.8841 47.4332 29.7345V29.8129C47.4319 30.862 47.0999 31.8839 46.4845 32.7335C45.869 33.583 45.0014 34.2169 44.005 34.5451C44.4526 35.1528 44.731 35.8685 44.8116 36.619C44.8922 37.3695 44.7722 38.128 44.4639 38.817C44.1556 39.5059 43.67 40.1008 43.0566 40.5407C42.4433 40.9807 41.7242 41.25 40.9727 41.3212C41.4097 41.9993 41.6415 42.7893 41.6401 43.596V43.7974C41.6387 44.9132 41.1945 45.9829 40.4049 46.7714C39.6154 47.56 38.5451 48.0029 37.4293 48.0029H19.4692C16.8077 47.8889 14.2134 47.1368 11.9044 45.811C11.8945 45.8451 11.8827 45.8787 11.869 45.9116C11.8199 46.0301 11.748 46.1378 11.6573 46.2285C11.5666 46.3192 11.4589 46.3912 11.3404 46.4402C11.2219 46.4893 11.0949 46.5146 10.9666 46.5146V46.5126H0.976727C0.718018 46.5126 0.469877 46.41 0.28676 46.2273C0.103644 46.0445 0.000512803 45.7966 0 45.5379V20.1066C0.000128325 19.8477 0.10309 19.5994 0.286248 19.4163C0.469406 19.2332 0.717767 19.1304 0.976727 19.1304H10.9666C11.2256 19.1304 11.474 19.2332 11.6571 19.4163C11.8403 19.5994 11.9432 19.8477 11.9434 20.1066V20.3938C12.4125 20.1643 12.8604 19.8918 13.2812 19.5791C15.9214 17.4156 18.3202 12.6021 19.4063 10.3916C19.7707 6.83322 19.2311 1.70951 19.2253 1.65772C19.2075 1.49203 19.2323 1.32453 19.2976 1.17119C19.3628 1.01784 19.4662 0.883743 19.598 0.781669C20.11 0.429552 20.6898 0.188073 21.3004 0.0726506C21.9111 -0.042772 22.539 -0.0296025 23.1443 0.111318C25.3199 0.594842 27.3029 2.55507 29.0395 5.9378C29.0619 5.98139 29.0809 6.02671 29.0961 6.07332C29.8584 8.3438 30.4983 12.8059 29.5012 16.6687H41.8153C43.1358 16.6701 44.4017 17.1953 45.3353 18.1291C46.269 19.0628 46.794 20.3288 46.7953 21.6492V21.7208C46.7955 22.4367 46.6411 23.1441 46.3427 23.7948ZM11.9434 22.5161C12.8627 22.1617 13.7296 21.6811 14.5188 21.0872C17.192 18.901 19.4145 14.8106 21.2358 11.0973C21.2855 10.9966 21.3171 10.888 21.3292 10.7764C21.6705 7.73637 21.3723 3.68717 21.2324 2.11269C21.7096 1.93902 22.2268 1.90708 22.7217 2.02073C23.8025 2.26273 25.4656 3.27915 27.2714 6.764C27.9926 8.97301 28.614 13.7027 27.2714 17.2733C26.6533 18.6091 24.893 22.2043 23.9051 23.3664C23.7374 23.5637 23.6548 23.8196 23.6757 24.0777C23.6966 24.3359 23.8192 24.5752 24.0165 24.7429C24.2138 24.9107 24.4696 24.9932 24.7278 24.9724C24.9859 24.9515 25.2252 24.8289 25.393 24.6316C26.5023 23.3248 28.1518 19.9701 28.7951 18.6222H41.8197C42.6224 18.623 43.392 18.9422 43.9596 19.5098C44.5272 20.0774 44.8464 20.847 44.8472 21.6497V21.7213C44.8461 22.5238 44.5268 23.2932 43.9593 23.8606C43.3917 24.4279 42.6222 24.747 41.8197 24.7478C41.5607 24.7478 41.3124 24.8507 41.1292 25.0338C40.9461 25.2169 40.8432 25.4653 40.8432 25.7243C40.8432 25.9833 40.9461 26.2316 41.1292 26.4148C41.3124 26.5979 41.5607 26.7008 41.8197 26.7008H42.4581C43.2615 26.7027 44.0312 27.0232 44.5986 27.5919C45.166 28.1606 45.4846 28.9312 45.4846 29.7345V29.8149C45.4836 30.6172 45.1644 31.3864 44.597 31.9538C44.0297 32.5211 43.2605 32.8403 42.4581 32.8414H40.6286C40.3733 32.847 40.1305 32.9524 39.952 33.1349C39.7735 33.3174 39.6736 33.5626 39.6736 33.8178C39.6736 34.0731 39.7735 34.3183 39.952 34.5008C40.1305 34.6833 40.3733 34.7887 40.6286 34.7943C41.2314 34.8031 41.8067 35.0487 42.2299 35.4782C42.6531 35.9076 42.8904 36.4863 42.8904 37.0893C42.8904 37.6922 42.6531 38.2709 42.2299 38.7004C41.8067 39.1298 41.2314 39.3754 40.6286 39.3842H37.4341C37.1751 39.3842 36.9268 39.4871 36.7436 39.6702C36.5605 39.8533 36.4576 40.1017 36.4576 40.3607C36.4576 40.6196 36.5605 40.868 36.7436 41.0511C36.9268 41.2343 37.1751 41.3371 37.4341 41.3371C38.033 41.3377 38.6072 41.5757 39.0308 41.9991C39.4544 42.4225 39.6927 42.9966 39.6935 43.5955V43.7969C39.6919 44.3949 39.4532 44.968 39.0296 45.3902C38.606 45.8124 38.0322 46.0493 37.4341 46.049H19.4678C17.1092 45.9277 14.8138 45.2449 12.7725 44.0573C12.5251 43.9105 12.2546 43.7592 11.9434 43.5942V22.5161ZM9.98992 22.1076V44.1413C9.98843 44.1724 9.98843 44.2036 9.98992 44.2346V44.5611H1.95297V21.0834H9.98992V21.5651C9.97163 21.6283 9.95973 21.6934 9.95452 21.7593C9.94523 21.8767 9.95726 21.9947 9.98992 22.1076Z" fill="currentColor"/>
</svg>
