<svg width="49" height="48" viewBox="0 0 49 48" fill="none" xmlns="http://www.w3.org/2000/svg">
<path d="M19.0476 46.2425L19.0491 46.241C23.4326 46.3812 27.8179 45.999 32.1106 45.1027L32.2762 45.0679C33.7205 44.7737 35.1026 44.2302 36.3604 43.4618C36.9433 43.0733 37.4434 42.5731 37.8318 41.9901C38.2202 41.4071 38.4891 40.7528 38.623 40.0652C38.7569 39.3776 38.7532 38.6703 38.612 37.9841C38.5228 37.551 38.3801 37.1317 38.1876 36.7358C38.0742 36.5012 37.9432 36.2748 37.7958 36.0585C37.4428 35.5841 37.0608 35.134 36.6525 34.7103C35.6653 33.6839 34.5238 32.8126 33.2662 32.1295C30.9305 30.7549 28.4543 29.6343 25.8799 28.787C25.4841 28.6768 25.1301 28.4512 24.8631 28.1389C24.5961 27.8265 24.4282 27.4417 24.381 27.0335C24.2744 26.4533 24.2978 25.8566 24.4493 25.2865C24.6009 24.7163 24.877 24.1868 25.2577 23.7361C28.0344 20.5541 29.609 16.5001 29.7081 12.278C29.8128 10.1187 29.3359 7.97076 28.327 6.05866C25.5875 1.0078 19.1571 -0.110636 14.6666 2.02116C14.5198 2.0906 14.3751 2.1635 14.2326 2.23982C12.6317 3.10122 11.2988 4.38666 10.38 5.95529C9.46111 7.52392 8.99178 9.3152 9.02338 11.1328C8.80367 15.8641 10.4602 20.4904 13.632 24.0067L13.6553 24.0325C13.9837 24.3918 14.218 24.8269 14.3373 25.2988C14.4566 25.7708 14.4572 26.2649 14.339 26.7371C14.2209 27.2094 13.9876 27.645 13.6601 28.0051C13.3326 28.3652 12.921 28.6387 12.462 28.801C11.5093 29.1765 10.5518 29.5551 9.6208 29.9725C7.69329 30.7646 5.86766 31.778 4.17997 32.9907C3.49505 33.4823 2.83283 34.0068 2.19572 34.5626C1.46384 35.1706 0.884683 35.9417 0.504711 36.814C0.124739 37.6863 -0.0454628 38.6356 0.0077629 39.5856C0.0097878 40.3024 0.188388 41.0077 0.527776 41.6391C0.867164 42.2705 1.35688 42.8086 1.95365 43.2058C3.79178 44.3681 5.85928 45.1198 8.01475 45.4093C11.657 46.0411 15.3518 46.3201 19.0476 46.2425Z" fill="#B2519E"/>
<path d="M39.5849 40.6563L39.6703 40.7618C39.9196 40.7249 40.171 40.6907 40.4233 40.6564C40.9559 40.584 41.492 40.5111 42.0196 40.4111C43.5972 40.1984 45.1098 39.6456 46.4529 38.7911C46.8548 38.5339 47.196 38.1926 47.4532 37.7908C47.708 37.3927 47.8743 36.9445 47.9407 36.4766C47.9415 36.4716 47.9422 36.4665 47.9429 36.4615C47.9486 36.4265 47.954 36.3916 47.959 36.3566C48.0689 35.6012 48.0215 34.8309 47.8193 34.0941C47.6086 33.3261 47.2346 32.6125 46.7229 32.0022C45.1751 30.2332 43.2848 28.7964 41.1661 27.7784C40.4563 27.4161 39.7059 27.1392 38.9534 26.8616C38.4393 26.6719 37.9241 26.4818 37.4202 26.2639C37.2734 26.1921 37.1443 26.0886 37.0423 25.9609C36.9403 25.8332 36.868 25.6844 36.8306 25.5253C36.7354 24.671 36.9459 23.8106 37.4249 23.0968C37.8315 22.5056 38.2365 21.9144 38.6275 21.3138C40.5645 18.6318 41.4144 15.316 41.0063 12.0329C40.8389 10.8913 40.4251 9.79974 39.7937 8.83403C39.1623 7.86832 38.3284 7.05154 37.3497 6.44035C36.3711 5.82917 35.2712 5.4382 34.1263 5.29459C32.9815 5.15097 31.8191 5.25814 30.7198 5.60866C30.7316 5.62252 30.7429 5.63592 30.7539 5.6489C30.8473 5.75936 30.9145 5.83888 30.9867 5.9097C32.5396 7.43832 33.449 9.50304 33.5285 11.6806C33.9047 16.0465 32.7348 20.4058 30.2233 23.9968C29.9958 24.309 29.8144 24.6524 29.6848 25.0163C29.5456 25.2839 29.4726 25.5811 29.472 25.8828C29.4714 26.1845 29.5432 26.4819 29.6814 26.7501C29.8196 27.0183 30.0201 27.2494 30.2662 27.424C30.5122 27.5986 30.7966 27.7116 31.0954 27.7536C31.8813 27.989 32.6516 28.2712 33.4021 28.5983C34.2987 28.9897 35.1671 29.4452 36.0004 29.9617C38.193 31.1939 40.015 32.9917 41.2763 35.1678C41.7478 35.815 41.9525 36.6186 41.8483 37.4125C41.744 38.2064 41.3387 38.9299 40.7161 39.4335C40.4818 39.6882 40.2456 39.9417 40.0094 40.1951C39.8673 40.3478 39.7251 40.5004 39.5834 40.6532L39.5849 40.6563Z" fill="#B2519E"/>
</svg>
