<svg width="24" height="24" viewBox="0 0 24 24" fill="none" xmlns="http://www.w3.org/2000/svg">
<circle cx="12" cy="12" r="12" fill="currentColor"/>
<path d="M12 7C11.6044 7 11.2178 6.8827 10.8889 6.66294C10.56 6.44318 10.3036 6.13082 10.1522 5.76537C10.0009 5.39992 9.96126 4.99778 10.0384 4.60982C10.1156 4.22186 10.3061 3.86549 10.5858 3.58579C10.8655 3.30608 11.2219 3.1156 11.6098 3.03843C11.9978 2.96126 12.3999 3.00087 12.7654 3.15224C13.1308 3.30362 13.4432 3.55996 13.6629 3.88886C13.8827 4.21776 14 4.60444 14 5C13.9994 5.53026 13.7885 6.03864 13.4136 6.41359C13.0386 6.78854 12.5303 6.99943 12 7Z" fill="white"/>
<path d="M17.9234 7.02795L17.9082 7.03215L17.8941 7.0367C17.8604 7.0465 17.8268 7.057 17.7931 7.06785C17.1668 7.25895 14.127 8.15005 11.9855 8.15005C9.99548 8.15005 7.23068 7.38005 6.34622 7.1186C6.25819 7.0832 6.1683 7.05306 6.07697 7.0283C5.43752 6.8533 5 7.5288 5 8.1462C5 8.75766 5.52839 9.04886 6.06183 9.25781V9.26761L9.2665 10.3085C9.59397 10.4391 9.68148 10.5724 9.72422 10.6879C9.86321 11.0586 9.75215 11.7925 9.71277 12.0487L9.51757 13.6237L8.4342 19.7904C8.43084 19.8072 8.42781 19.8243 8.42512 19.8418L8.41738 19.8863C8.3393 20.4515 8.73845 21 9.49435 21C10.154 21 10.4451 20.5264 10.5713 19.8821C10.6975 19.2377 11.5137 14.3671 11.9849 14.3671C12.456 14.3671 13.4267 19.8821 13.4267 19.8821C13.5529 20.5264 13.844 21 14.5036 21C15.2616 21 15.6607 20.4491 15.5806 19.8821C15.5737 19.8344 15.5652 19.787 15.555 19.74L14.4568 13.6244L14.262 12.0494C14.121 11.1321 14.2344 10.829 14.2728 10.7579C14.2738 10.7562 14.2747 10.7545 14.2754 10.7527C14.3118 10.6827 14.4774 10.5259 14.8637 10.375L17.8685 9.28266C17.887 9.27755 17.9052 9.27147 17.923 9.26446C18.4615 9.05446 19 8.76396 19 8.1469C19 7.52985 18.5628 6.8533 17.9234 7.02795Z" fill="white"/>
</svg>
