<svg width="48" height="48" viewBox="0 0 48 48" fill="none" xmlns="http://www.w3.org/2000/svg">
<path d="M21.7872 35.4H26.2128V28.64H21.7872V35.4ZM27.8096 37.6688H20.1904V33.864H4.91748e-07V44.784C4.27191e-07 45.1262 0.0674286 45.465 0.198432 45.7812C0.329436 46.0973 0.521447 46.3845 0.763494 46.6264C1.00554 46.8683 1.29288 47.0602 1.6091 47.191C1.92531 47.3218 2.2642 47.389 2.6064 47.3888H45.3936C46.0846 47.3888 46.7473 47.1144 47.236 46.626C47.7248 46.1375 47.9996 45.475 48 44.784V33.864H27.8096V37.6688ZM45.3936 9.2944H33.0192V3.6064C33.0192 2.91514 32.7446 2.25219 32.2558 1.7634C31.767 1.2746 31.1041 1 30.4128 1L17.6688 1C16.9774 1 16.3143 1.27455 15.8252 1.7633C15.3362 2.25205 15.0612 2.91499 15.0608 3.6064V9.2944H2.6064C2.26406 9.29419 1.92504 9.36146 1.60873 9.49237C1.29241 9.62328 1.005 9.81526 0.762928 10.0573C0.52086 10.2994 0.328882 10.5868 0.197972 10.9031C0.0670631 11.2194 -0.000209853 11.5585 4.91748e-07 11.9008V31.4128H20.1904V26.6496H27.8096V31.4128H48V11.9008C48 11.2095 47.7254 10.5466 47.2366 10.0578C46.7478 9.569 46.0849 9.2944 45.3936 9.2944ZM30.624 9.2944H17.456V4.992C17.4581 4.48417 17.6613 3.99786 18.0212 3.63952C18.381 3.28118 18.8682 3.08 19.376 3.08H28.7184C29.2245 3.08127 29.7094 3.28333 30.0667 3.6418C30.424 4.00028 30.6244 4.48588 30.624 4.992V9.2944Z" fill="currentColor"/>
</svg>
