<svg width="48" height="48" viewBox="0 0 48 48" fill="none" xmlns="http://www.w3.org/2000/svg">
<path d="M43.1328 20.9936L41.272 8.1936C41.272 8.1936 40.96 0.8864 24.1248 0H23.0048C6.176 0.8864 5.864 8.2 5.864 8.2L4 20.9936V41.8656H7.2832C7.24449 42.053 7.22519 42.2439 7.2256 42.4352V45.1744C7.2256 45.9238 7.5233 46.6425 8.0532 47.1724C8.5831 47.7023 9.3018 48 10.0512 48C10.8006 48 11.5193 47.7023 12.0492 47.1724C12.5791 46.6425 12.8768 45.9238 12.8768 45.1744V42.4352C12.8772 42.2439 12.8579 42.053 12.8192 41.8656H34.3168C34.2781 42.053 34.2588 42.2439 34.2592 42.4352V45.1744C34.2592 45.9238 34.5569 46.6425 35.0868 47.1724C35.6167 47.7023 36.3354 48 37.0848 48C37.8342 48 38.5529 47.7023 39.0828 47.1724C39.6127 46.6425 39.9104 45.9238 39.9104 45.1744V42.4352C39.91 42.2439 39.8907 42.0531 39.8528 41.8656H43.1328V20.9936ZM15.9488 3.2656H31.1872C31.3591 3.2656 31.5239 3.33387 31.6454 3.45539C31.7669 3.57692 31.8352 3.74174 31.8352 3.9136C31.8352 4.08546 31.7669 4.25028 31.6454 4.37181C31.5239 4.49333 31.3591 4.5616 31.1872 4.5616H15.9488C15.7769 4.5616 15.6121 4.49333 15.4906 4.37181C15.3691 4.25028 15.3008 4.08546 15.3008 3.9136C15.3008 3.74174 15.3691 3.57692 15.4906 3.45539C15.6121 3.33387 15.7769 3.2656 15.9488 3.2656ZM10.0368 35.7072C9.48396 35.7072 8.94354 35.5433 8.48387 35.2361C8.0242 34.929 7.66593 34.4924 7.45437 33.9817C7.24281 33.4709 7.18746 32.9089 7.29531 32.3667C7.40316 31.8245 7.66938 31.3264 8.0603 30.9355C8.45121 30.5446 8.94927 30.2784 9.49148 30.1705C10.0337 30.0627 10.5957 30.118 11.1065 30.3296C11.6172 30.5411 12.0538 30.8994 12.3609 31.3591C12.6681 31.8187 12.832 32.3592 12.832 32.912C12.832 33.6533 12.5375 34.3643 12.0133 34.8885C11.4891 35.4127 10.7781 35.7072 10.0368 35.7072ZM23.568 23.2144H23.0112L9 23.272C9 23.272 7.3056 23.592 7.432 21.4512C7.808 17.3056 8.872 9.896 8.872 9.896C8.872 9.896 8.872 8.5136 10.8192 8.5136H36.32C38.2672 8.5136 38.2672 9.896 38.2672 9.896C38.2672 9.896 39.3344 17.3056 39.7072 21.4512C39.8336 23.5872 38.136 23.272 38.136 23.272L24.128 23.2144H23.568ZM37.0992 35.7072C36.5463 35.7075 36.0057 35.5439 35.5458 35.2369C35.086 34.93 34.7274 34.4935 34.5156 33.9828C34.3038 33.4721 34.2482 32.91 34.3559 32.3677C34.4636 31.8253 34.7297 31.3271 35.1205 30.9361C35.5114 30.545 36.0094 30.2786 36.5517 30.1706C37.094 30.0626 37.6561 30.1179 38.1669 30.3294C38.6778 30.5409 39.1144 30.8992 39.4216 31.3589C39.7288 31.8186 39.8928 32.3591 39.8928 32.912C39.8928 33.6531 39.5985 34.3638 39.0747 34.8879C38.5508 35.4121 37.8403 35.7068 37.0992 35.7072Z" fill="currentColor"/>
</svg>
