<svg width="48" height="48" viewBox="0 0 48 48" fill="none" xmlns="http://www.w3.org/2000/svg">
    <path d="M0,46.062A1.939,1.939,0,0,0,1.939,48H42.186a1.938,1.938,0,0,0,1.938-1.938V13.622H0ZM32.584,17.446H40.3V25.1H32.584Zm0,9.666H40.3v7.656H32.584Zm0,9.536H40.3V44.3H32.584ZM22.9,17.446h7.718V25.1H22.9Zm0,9.666h7.718v7.656H22.9Zm0,9.536h7.718V44.3H22.9Zm-9.686-19.2H20.93V25.1H13.211Zm0,9.666H20.93v7.656H13.211Zm0,9.536H20.93V44.3H13.211Zm-9.686-19.2h7.72V25.1H3.525Zm0,9.666h7.72v7.656H3.525Zm0,9.536h7.72V44.3H3.525ZM42.186,5.866H34.549V0H30.786V5.866H13.338V0H9.578V5.866H1.939A1.94,1.94,0,0,0,0,7.8v3.157H44.123V7.8a1.94,1.94,0,0,0-1.938-1.939" transform="translate(1.938)" fill="currentColor"/>
</svg>
