<svg width="48" height="48" viewBox="0 0 48 48" fill="none" xmlns="http://www.w3.org/2000/svg">
<path fill-rule="evenodd" clip-rule="evenodd" d="M35.3856 1.94615e-05H12.336C11.8893 -0.0115096 11.445 0.0696706 11.0313 0.238438C10.6175 0.407206 10.2433 0.659897 9.93205 0.980569C9.62085 1.30124 9.37949 1.68293 9.2232 2.10156C9.06691 2.52019 8.99908 2.96666 9.02399 3.41282L8.99999 44.6032C8.9442 45.0426 8.98568 45.4888 9.12152 45.9103C9.25736 46.3319 9.48422 46.7184 9.78603 47.0425C10.0878 47.3666 10.4572 47.6204 10.868 47.7858C11.2788 47.9513 11.721 48.0244 12.1632 48H35.5408C35.9694 48.0122 36.3958 47.9357 36.7935 47.7754C37.1912 47.6151 37.5515 47.3745 37.8519 47.0686C38.1522 46.7626 38.3862 46.398 38.5392 45.9974C38.6921 45.5969 38.7608 45.1691 38.7408 44.7408V3.41282C38.7644 2.96333 38.6942 2.51385 38.5347 2.09295C38.3752 1.67206 38.1299 1.28895 37.8143 0.967975C37.4988 0.647005 37.1199 0.395196 36.7018 0.228555C36.2836 0.0619145 35.8354 -0.0159132 35.3856 1.94615e-05ZM20.5408 1.65442H27.1616V3.30722H20.5408V1.65442ZM18.0592 1.65442C18.2227 1.65442 18.3826 1.70289 18.5186 1.79372C18.6546 1.88454 18.7606 2.01364 18.8233 2.1647C18.8859 2.31575 18.9024 2.48199 18.8706 2.64241C18.8388 2.80283 18.7602 2.95022 18.6447 3.06597C18.5291 3.18172 18.3819 3.26063 18.2216 3.29273C18.0612 3.32483 17.8949 3.30867 17.7437 3.24631C17.5926 3.18395 17.4633 3.07817 17.3722 2.94235C17.2811 2.80653 17.2323 2.64676 17.232 2.48322C17.232 2.26369 17.3191 2.05312 17.4742 1.89773C17.6293 1.74235 17.8397 1.65484 18.0592 1.65442ZM23.8512 44.6944C23.5231 44.6947 23.2024 44.5977 22.9295 44.4156C22.6566 44.2335 22.4439 43.9746 22.3183 43.6715C22.1927 43.3685 22.1598 43.035 22.2239 42.7132C22.2879 42.3915 22.446 42.096 22.6781 41.8642C22.9101 41.6323 23.2058 41.4745 23.5276 41.4108C23.8494 41.3471 24.1829 41.3803 24.4858 41.5062C24.7887 41.6321 25.0475 41.845 25.2293 42.1181C25.4111 42.3911 25.5078 42.712 25.5072 43.04C25.5076 43.2577 25.4651 43.4733 25.382 43.6745C25.299 43.8757 25.177 44.0585 25.0232 44.2125C24.8694 44.3665 24.6867 44.4886 24.4855 44.5718C24.2844 44.6551 24.0689 44.6978 23.8512 44.6976M35.5072 38.0752H12.2V4.96002H35.5072V38.0752Z" fill="currentColor"/>
</svg>
