<svg xmlns="http://www.w3.org/2000/svg" xmlns:xlink="http://www.w3.org/1999/xlink" width="71.028" height="52.179" viewBox="0 0 71.028 52.179">
              <path d="M71.028,4.3a7.293,7.293,0,0,1-1.956,2.707Q47.165,28.894,25.28,50.8a3.617,3.617,0,0,1-3.93,1.184,4.556,4.556,0,0,1-1.664-1.07C13.521,44.786,7.4,38.618,1.227,32.5A3.586,3.586,0,0,1,2.7,26.306a3.4,3.4,0,0,1,2.951.6,8.191,8.191,0,0,1,.821.744q7.678,7.671,15.35,15.348c.179.179.339.378.672.752a5.8,5.8,0,0,1,.556-.8Q43.809,22.17,64.576,1.4A3.757,3.757,0,0,1,68.3.107a3.522,3.522,0,0,1,2.554,2.318c.047.121.116.234.174.35Z" transform="translate(0 0)" fill="currentColor" />
            </svg>