<svg width="48" height="48" viewBox="0 0 48 48" fill="none" xmlns="http://www.w3.org/2000/svg">
<path fill-rule="evenodd" clip-rule="evenodd" d="M27.9938 9.00033C27.9938 11.531 26.1273 13.7511 24 13.7511C21.8723 13.7511 20.0062 11.531 20.0062 9.00033C20.0062 8.47586 20.1095 7.95653 20.3102 7.47198C20.5109 6.98744 20.8051 6.54717 21.176 6.17631C21.5468 5.80545 21.9871 5.51127 22.4716 5.31057C22.9562 5.10986 23.4755 5.00656 24 5.00656C24.5245 5.00656 25.0438 5.10986 25.5283 5.31057C26.0129 5.51127 26.4532 5.80545 26.824 6.17631C27.1949 6.54717 27.4891 6.98744 27.6898 7.47198C27.8905 7.95653 27.9938 8.47586 27.9938 9.00033ZM24.9397 6.74332C24.6403 6.62861 24.3201 6.57843 24 6.59606C23.6799 6.57837 23.3596 6.62851 23.0603 6.74319C22.7609 6.85787 22.4891 7.03451 22.2627 7.26154C22.0364 7.48856 21.8605 7.76085 21.7467 8.06057C21.6329 8.36028 21.5837 8.68066 21.6023 9.00072C21.6023 10.6222 22.7676 12.1554 24 12.1554C25.2324 12.1554 26.3977 10.6222 26.3977 9.00072C26.4163 8.68068 26.367 8.36032 26.2532 8.06064C26.1393 7.76095 25.9635 7.48869 25.7371 7.26167C25.5108 7.03466 25.239 6.85802 24.9397 6.74332Z" fill="currentColor"/>
<path fill-rule="evenodd" clip-rule="evenodd" d="M35.6492 10.9604L35.6731 10.9901H35.6747C35.9057 11.2752 36.0781 11.6031 36.1821 11.955C36.286 12.3069 36.3195 12.6759 36.2805 13.0407C36.2414 13.4056 36.1307 13.7591 35.9547 14.0811C35.7787 14.403 35.5408 14.6871 35.2548 14.9168L28.3763 20.4986V25.4535C28.3758 25.5148 28.3682 25.5758 28.3536 25.6353C28.3677 25.694 28.3751 25.7541 28.3755 25.8145V27.7877L28.2457 40.4066C28.3719 40.9745 28.277 41.5691 27.9803 42.0695C27.6836 42.5699 27.2073 42.9384 26.6485 43.1002C26.4007 43.1695 26.1446 43.2046 25.8873 43.2046C25.5137 43.2202 25.1418 43.1475 24.8017 42.9922C24.4616 42.8368 24.163 42.6034 23.9303 42.3108C23.7015 42.5865 23.4134 42.8068 23.0874 42.9553C22.5335 43.2148 21.9056 43.2694 21.3153 43.1094C21.3097 43.108 21.2967 43.104 21.2838 43.0998L21.2529 43.0898C20.6997 42.9244 20.2302 42.5548 19.9396 42.0559C19.649 41.557 19.5592 40.9662 19.6884 40.4035L19.6352 27.2464C19.6107 27.1708 19.5977 27.092 19.5967 27.0126V25.7995C19.598 25.7687 19.6011 25.7381 19.606 25.7078C19.6071 25.7005 19.607 25.6934 19.607 25.6862C19.6069 25.6786 19.6069 25.6709 19.6083 25.6631C19.6214 25.594 19.6287 25.5239 19.6302 25.4535V20.5005L12.7449 14.9145C12.4594 14.6847 12.222 14.4008 12.0464 14.0791C11.8708 13.7574 11.7604 13.4042 11.7215 13.0397C11.6827 12.6753 11.7161 12.3067 11.8199 11.9552C11.9237 11.6037 12.0959 11.2761 12.3265 10.9913L12.3484 10.9635C12.8105 10.3957 13.4767 10.0316 14.204 9.94931C14.9314 9.86699 15.6621 10.073 16.2394 10.5232L20.7131 14.1745H27.2857L31.7491 10.5324C32.3257 10.0788 33.0573 9.86947 33.7866 9.9495C34.5159 10.0295 35.1847 10.3925 35.6492 10.9604ZM34.5536 13.3173C34.6294 13.1792 34.6769 13.0275 34.6935 12.8708L34.6919 12.8732C34.7092 12.7173 34.6952 12.5597 34.6508 12.4093C34.6064 12.259 34.5325 12.119 34.4334 11.9975L34.4095 11.9675C34.2123 11.7245 33.9276 11.5687 33.6166 11.5336C33.3057 11.4984 32.9934 11.5867 32.7468 11.7795L28.0766 15.5902L28.0697 15.5949C28.0322 15.6248 27.9921 15.6512 27.9499 15.6738L27.9352 15.6819C27.895 15.7023 27.8531 15.7192 27.81 15.7324L27.7857 15.7401C27.747 15.7506 27.7074 15.758 27.6675 15.7624C27.6536 15.7644 27.6428 15.7655 27.6259 15.7667C27.6189 15.7672 27.6121 15.7681 27.6052 15.769C27.5954 15.7704 27.5856 15.7717 27.5754 15.7717H20.393C20.2723 15.7712 20.1534 15.7432 20.0451 15.6898C19.9369 15.6364 19.8423 15.559 19.7685 15.4635L15.2408 11.7687C14.9942 11.5807 14.6841 11.496 14.3762 11.5325C14.0683 11.5691 13.7866 11.7239 13.5908 11.9644L13.5685 11.9921C13.4692 12.1138 13.3951 12.254 13.3502 12.4046C13.3054 12.5551 13.2908 12.713 13.3072 12.8692C13.3237 13.0254 13.3709 13.1768 13.4462 13.3147C13.5214 13.4526 13.6232 13.5742 13.7457 13.6725L20.925 19.5C21.027 19.5826 21.107 19.6892 21.1579 19.8101C21.2088 19.9311 21.229 20.0628 21.2167 20.1935C21.2176 20.2025 21.2188 20.2114 21.22 20.2203C21.2224 20.238 21.2247 20.2555 21.2247 20.274V27.7881L21.2833 40.4975C21.2838 40.5724 21.2735 40.647 21.2529 40.719C21.2029 40.8936 21.2242 41.0808 21.3121 41.2397C21.3999 41.3986 21.5473 41.5161 21.7217 41.5665C21.7336 41.5692 21.774 41.5827 21.7856 41.5865C21.9979 41.6295 22.2184 41.6024 22.414 41.5095C22.557 41.4508 22.6763 41.346 22.753 41.2117L23.2249 28.6545C23.2328 28.4482 23.3202 28.253 23.4689 28.1099C23.6176 27.9667 23.8159 27.8867 24.0223 27.8867H24.0258C24.2329 27.8875 24.4315 27.9688 24.5797 28.1133C24.728 28.2579 24.8142 28.4544 24.8202 28.6614L25.1919 41.33C25.2774 41.4278 25.3847 41.5042 25.5052 41.5528C25.6257 41.6015 25.7559 41.6211 25.8854 41.6101C25.9956 41.6105 26.1054 41.5957 26.2117 41.5661C26.3853 41.5147 26.5315 41.3968 26.6186 41.2381C26.7057 41.0794 26.7266 40.8926 26.6766 40.7186C26.6557 40.6451 26.6456 40.5689 26.6466 40.4925L26.7776 27.7796V25.8149C26.7781 25.7536 26.7857 25.6926 26.8003 25.633C26.7862 25.5742 26.7788 25.514 26.7783 25.4535V20.1176C26.7783 20.1113 26.7793 20.105 26.7802 20.0986C26.7812 20.0921 26.7822 20.0856 26.7822 20.079C26.7836 20.0511 26.7864 20.0232 26.7907 19.9954C26.7949 19.9708 26.7995 19.9461 26.8057 19.9219C26.8121 19.8967 26.8198 19.8719 26.8288 19.8475C26.8373 19.8233 26.8471 19.7995 26.8581 19.7762C26.8693 19.7531 26.8812 19.7312 26.8947 19.7088C26.9082 19.6865 26.9224 19.6645 26.9382 19.6437C26.9531 19.6236 26.969 19.6043 26.986 19.5859C27.0049 19.565 27.025 19.545 27.0461 19.5262C27.0511 19.522 27.0555 19.5173 27.06 19.5125C27.0644 19.5078 27.0688 19.5031 27.0738 19.4989L34.252 13.6748C34.3753 13.5769 34.4778 13.4553 34.5536 13.3173Z" fill="currentColor"/>
<path fill-rule="evenodd" clip-rule="evenodd" d="M41.318 17.1451C43.3163 17.1451 45.0695 15.0648 45.0695 12.6944C45.0695 11.6994 44.6742 10.7452 43.9707 10.0417C43.2672 9.33817 42.313 8.94293 41.318 8.94293C40.3231 8.94293 39.3689 9.33817 38.6653 10.0417C37.9618 10.7452 37.5666 11.6994 37.5666 12.6944C37.5666 15.0655 39.3198 17.1451 41.318 17.1451ZM41.3176 10.5328C41.6056 10.5166 41.8936 10.5615 42.163 10.6645C42.4323 10.7674 42.6769 10.9262 42.8806 11.1303C43.0843 11.3344 43.2425 11.5792 43.345 11.8488C43.4474 12.1183 43.4917 12.4065 43.475 12.6944C43.475 14.1618 42.4275 15.549 41.3176 15.549C40.2078 15.549 39.1626 14.1621 39.1626 12.6944C39.1459 12.4067 39.1901 12.1188 39.2924 11.8494C39.3947 11.58 39.5528 11.3352 39.7562 11.1312C39.9597 10.9271 40.2039 10.7683 40.473 10.6652C40.7421 10.5621 41.0299 10.517 41.3176 10.5328Z" fill="currentColor"/>
<path fill-rule="evenodd" clip-rule="evenodd" d="M38.2943 17.2756H44.3425C45.3123 17.279 46.242 17.666 46.9273 18.3521C47.6126 19.0382 47.9985 19.9676 48.0008 20.9373V26.8392C48.0129 27.1915 47.9407 27.5417 47.79 27.8604C47.6393 28.1791 47.4146 28.4572 47.1346 28.6714C46.8546 28.8856 46.5274 29.0297 46.1804 29.0918C45.8333 29.1539 45.4765 29.132 45.1396 29.0281L45.0313 39.4777C45.1404 39.9856 45.0529 40.5159 44.7864 40.9617C44.5198 41.4076 44.0942 41.7357 43.5952 41.8801C43.3751 41.9417 43.1476 41.9729 42.9191 41.9729C42.6114 41.9809 42.3054 41.9239 42.0212 41.8056C41.7371 41.6873 41.481 41.5104 41.2699 41.2864C41.0826 41.4811 40.8604 41.639 40.615 41.7518C40.1211 41.9823 39.5617 42.0309 39.0355 41.8889L38.9777 41.8704C38.7251 41.7963 38.4896 41.673 38.2847 41.5078C38.0798 41.3425 37.9095 41.1385 37.7835 40.9073C37.5401 40.4715 37.4656 39.9614 37.5743 39.4743L37.5319 29.0166C37.1652 29.1404 36.7717 29.1622 36.3935 29.0797C35.8888 28.9623 35.4392 28.6762 35.119 28.2687C34.7989 27.8612 34.6273 27.3566 34.6326 26.8384V20.9373C34.6337 19.9665 35.0199 19.0358 35.7063 18.3494C36.3928 17.6629 37.3235 17.2768 38.2943 17.2756ZM46.2732 27.2636C46.3629 27.1404 46.409 26.9908 46.404 26.8384L46.4043 20.9373C46.4031 20.3902 46.1854 19.8657 45.7987 19.4786C45.412 19.0915 44.8878 18.8731 44.3406 18.8713H38.2947C37.7469 18.8719 37.2218 19.0898 36.8344 19.4771C36.4471 19.8644 36.2293 20.3896 36.2286 20.9373V26.8384C36.2237 26.9911 36.2699 27.141 36.3601 27.2643C36.4502 27.3876 36.579 27.4772 36.726 27.5188C36.8345 27.5415 36.947 27.5369 37.0534 27.5055C37.1597 27.4741 37.2566 27.4169 37.3354 27.3388C37.4226 27.2552 37.4839 27.1482 37.5119 27.0307C37.5202 26.9876 37.525 26.9439 37.5261 26.9001V21.5476C37.5261 21.3359 37.6102 21.1329 37.7599 20.9833C37.9095 20.8336 38.1125 20.7495 38.3242 20.7495C38.5358 20.7495 38.7388 20.8336 38.8884 20.9833C39.0381 21.1329 39.1222 21.3359 39.1222 21.5476V28.8648L39.1715 39.5656C39.1719 39.6406 39.1616 39.7153 39.141 39.7875C39.1077 39.9028 39.1216 40.0267 39.1796 40.1319C39.2082 40.1834 39.2468 40.2287 39.2931 40.2653C39.3394 40.3018 39.3924 40.3287 39.4492 40.3445L39.5082 40.3634C39.6565 40.3897 39.8093 40.3684 39.9447 40.3025C40.0304 40.267 40.1043 40.2078 40.1577 40.1319L40.5549 29.5898C40.5635 29.3835 40.6518 29.1886 40.8011 29.046C40.9504 28.9034 41.1492 28.8242 41.3557 28.8251C41.5621 28.8259 41.7602 28.9067 41.9084 29.0505C42.0565 29.1944 42.1432 29.39 42.1501 29.5963L42.4618 40.2262C42.5615 40.2987 42.6767 40.347 42.7983 40.367C42.9199 40.3871 43.0445 40.3785 43.1622 40.3418C43.2754 40.3074 43.3705 40.2299 43.4271 40.126C43.4838 40.0221 43.4974 39.9001 43.465 39.7863C43.444 39.7128 43.4337 39.6366 43.4345 39.5602L43.5455 28.8555V27.2021C43.5455 27.1923 43.5469 27.1826 43.5484 27.173C43.5498 27.1634 43.5513 27.1537 43.5513 27.1439C43.5526 27.1125 43.5558 27.0813 43.5609 27.0503V27.0484C43.5509 26.9989 43.5458 26.9486 43.5455 26.8981V21.5456C43.5455 21.334 43.6296 21.131 43.7792 20.9813C43.9289 20.8317 44.1319 20.7476 44.3435 20.7476C44.5552 20.7476 44.7581 20.8317 44.9078 20.9813C45.0575 21.131 45.1415 21.334 45.1415 21.5456V26.8981C45.1411 26.9465 45.1364 26.9947 45.1273 27.0422C45.1551 27.1542 45.214 27.2561 45.2972 27.3362C45.376 27.4148 45.4732 27.4725 45.5799 27.5044C45.6866 27.5362 45.7995 27.541 45.9085 27.5184C46.0551 27.4765 46.1834 27.3868 46.2732 27.2636Z" fill="currentColor"/>
<path fill-rule="evenodd" clip-rule="evenodd" d="M6.68158 17.145C8.67982 17.145 10.4327 15.0648 10.4327 12.6944C10.4503 12.1967 10.3653 11.7008 10.1831 11.2374C10.001 10.7739 9.72539 10.3529 9.37359 10.0005C9.02179 9.6481 8.60127 9.37181 8.13816 9.18881C7.67506 9.00581 7.17926 8.92002 6.68158 8.93676C6.18388 8.91996 5.68804 9.00572 5.22489 9.18869C4.76173 9.37167 4.34116 9.64795 3.98932 10.0004C3.63748 10.3528 3.36189 10.7738 3.17967 11.2373C2.99746 11.7007 2.91252 12.1967 2.93013 12.6944C2.93013 15.0655 4.68296 17.145 6.68158 17.145ZM6.68158 10.5328C6.96931 10.517 7.25713 10.5621 7.5262 10.6652C7.79528 10.7683 8.03954 10.9271 8.24299 11.1312C8.44644 11.3352 8.60449 11.58 8.70678 11.8494C8.80908 12.1187 8.85332 12.4067 8.83661 12.6944C8.83661 14.1618 7.78915 15.549 6.68158 15.549C5.57402 15.549 4.52425 14.1621 4.52425 12.6944C4.5075 12.4065 4.5518 12.1183 4.65424 11.8488C4.75667 11.5792 4.91493 11.3344 5.11864 11.1303C5.32234 10.9262 5.56689 10.7674 5.83624 10.6645C6.1056 10.5615 6.39367 10.5166 6.68158 10.5328Z" fill="currentColor"/>
<path fill-rule="evenodd" clip-rule="evenodd" d="M3.65553 17.2756H9.70533C10.6762 17.2768 11.6073 17.6629 12.2938 18.3493C12.9803 19.0358 13.3666 19.9665 13.3678 20.9373V26.8384C13.3799 27.1936 13.3062 27.5465 13.153 27.8671C12.9998 28.1878 12.7717 28.4669 12.4878 28.6807C12.204 28.8945 11.8728 29.0368 11.5223 29.0955C11.1718 29.1543 10.8123 29.1277 10.4743 29.0181L10.4261 39.4746C10.537 39.9833 10.45 40.515 10.183 40.9619C9.91597 41.4087 9.48884 41.7372 8.9884 41.8805C8.5934 41.9924 8.17561 41.9962 7.77864 41.8915C7.38167 41.7868 7.0201 41.5774 6.73167 41.2853C6.52046 41.5094 6.26433 41.6865 5.98001 41.805C5.69569 41.9234 5.38958 41.9805 5.08169 41.9725C4.8557 41.9726 4.63074 41.9422 4.41291 41.882C3.91245 41.7386 3.48508 41.4106 3.21714 40.9642C2.9492 40.5179 2.86066 39.9865 2.96942 39.4773L2.86156 29.0277C2.65647 29.0914 2.44333 29.1254 2.22861 29.1287C2.07143 29.1288 1.91468 29.1124 1.76093 29.0797C1.25614 28.9624 0.806514 28.6763 0.486338 28.2687C0.166161 27.8612 -0.00540082 27.3566 1.73201e-06 26.8384V20.9373C0.00213152 19.9679 0.387755 19.0387 1.07266 18.3527C1.75757 17.6666 2.68612 17.2794 3.65553 17.2756ZM11.6404 27.2636C11.7302 27.1405 11.7763 26.9908 11.7714 26.8384L11.7717 20.9377C11.7711 20.39 11.5533 19.8648 11.1659 19.4775C10.7786 19.0902 10.2535 18.8723 9.70571 18.8717H3.65746C3.11073 18.874 2.58711 19.0925 2.20091 19.4795C1.8147 19.8665 1.59726 20.3906 1.59605 20.9373V26.8384C1.59114 26.9908 1.63731 27.1405 1.7272 27.2637C1.8171 27.3869 1.94558 27.4765 2.09223 27.5184C2.20077 27.5411 2.31326 27.5366 2.41962 27.5052C2.52597 27.4738 2.62289 27.4165 2.70168 27.3385C2.78566 27.2581 2.84523 27.1557 2.8735 27.043C2.86429 26.9955 2.85939 26.9473 2.85886 26.8989V21.5464C2.85886 21.4416 2.8795 21.3378 2.91961 21.241C2.95971 21.1442 3.01849 21.0562 3.0926 20.9821C3.1667 20.908 3.25467 20.8492 3.35149 20.8091C3.44831 20.769 3.55208 20.7484 3.65688 20.7484C3.76168 20.7484 3.86545 20.769 3.96227 20.8091C4.05909 20.8492 4.14707 20.908 4.22117 20.9821C4.29527 21.0562 4.35405 21.1442 4.39416 21.241C4.43426 21.3378 4.45491 21.4416 4.45491 21.5464V26.8989C4.45463 26.9493 4.4496 26.9997 4.43988 27.0491V27.0511C4.445 27.0821 4.44821 27.1133 4.44951 27.1447C4.45012 27.1524 4.45113 27.16 4.45215 27.1675C4.45372 27.1793 4.45529 27.1909 4.45529 27.2029V28.864L4.56585 39.5606C4.56673 39.637 4.55648 39.7132 4.53542 39.7867C4.50306 39.9019 4.51753 40.0252 4.57569 40.1297C4.63385 40.2343 4.73099 40.3116 4.84592 40.3449C4.96304 40.3783 5.08616 40.3849 5.20618 40.3643C5.32621 40.3437 5.44007 40.2964 5.53935 40.2259L5.85101 29.596C5.85797 29.3896 5.94463 29.194 6.09277 29.0502C6.24091 28.9063 6.43902 28.8255 6.64549 28.8247C6.85197 28.8238 7.05073 28.903 7.20005 29.0456C7.34937 29.1882 7.43763 29.3831 7.44629 29.5894L7.84308 40.1311C7.92426 40.2288 8.03149 40.3015 8.15233 40.3407C8.27316 40.3799 8.40264 40.384 8.52572 40.3526C8.58555 40.3387 8.64193 40.3127 8.69144 40.2764C8.74096 40.24 8.78259 40.194 8.81381 40.1411C8.84504 40.0882 8.8652 40.0295 8.87309 39.9686C8.88099 39.9077 8.87644 39.8458 8.85973 39.7867C8.83916 39.7147 8.82891 39.6401 8.82929 39.5652L8.8786 26.8993V21.5468C8.8786 21.3351 8.96268 21.1322 9.11234 20.9825C9.262 20.8328 9.46498 20.7488 9.67663 20.7488C9.88827 20.7488 10.0913 20.8328 10.2409 20.9825C10.3906 21.1322 10.4746 21.3351 10.4746 21.5468V26.8993C10.4758 26.9431 10.4805 26.9868 10.4889 27.0299C10.5166 27.1473 10.5774 27.2543 10.6642 27.3381C10.7433 27.4163 10.8405 27.4736 10.9472 27.5051C11.0539 27.5366 11.1667 27.5411 11.2756 27.5184C11.4221 27.4765 11.5505 27.3868 11.6404 27.2636Z" fill="currentColor"/>
</svg>
