<svg width="48" height="48" viewBox="0 0 48 48" fill="none" xmlns="http://www.w3.org/2000/svg">
<path d="M22.512 34.992L19.319 29.255C19.319 29.255 16.871 24.9293 14.519 19.7549C14.0649 18.6855 14.0257 17.4852 14.4091 16.3885C14.7926 15.2918 15.5711 14.3774 16.5926 13.824C16.5926 13.824 16.3065 7.71264 16.1222 0C8.59582 1.3152 7.18462 4.51392 6.8083 5.45472C4.17406 15.3331 8.6899 27.9379 10.2893 30.6662C19.6973 46.3776 28.5293 48.2573 29.9481 47.977C33.1707 47.6568 36.2674 46.5591 38.9721 44.7782L28.3449 36.217C23.9289 37.9104 22.512 34.992 22.512 34.992ZM21.575 11.4758C21.575 11.4758 21.383 4.2336 21.383 2.25984C21.383 0.28608 17.6275 0 17.6275 0L17.8195 13.2614C19.8893 14.1101 21.5808 11.4739 21.5808 11.4739M40.8653 39.3139C37.1021 36.3994 33.9033 33.7651 33.9033 33.7651C33.9033 33.7651 32.2099 32.3539 29.3894 35.0822L40.3008 43.6397C40.3008 43.6397 42.1805 40.535 40.8653 39.3139Z" fill="currentColor"/>
</svg>
