<svg width="48" height="48" viewBox="0 0 48 48" fill="none" xmlns="http://www.w3.org/2000/svg">
<path d="M34.0848 26.5744L24.88 25.5408C24.88 25.5408 24.5328 14.096 24.36 12.1184C24.1872 10.1408 23.5872 9.7936 22.8128 9.3648C20.3168 9.0192 20.4032 10.8272 20.4032 10.8272V30.9616C20.4032 30.9616 20.0576 30.9616 16.8832 27.2608C12.8384 22.6208 10.2576 26.2288 10.2576 26.2288C12.3232 27.6928 17.312 35.7808 20.9264 41.2016C24.5408 46.6224 27.8896 48 29.36 48C35.3824 48 36.5872 41.9776 36.5872 41.9776C36.5872 41.9776 37.7072 33.8016 37.7072 30.1024C37.7287 29.6264 37.6493 29.1513 37.4741 28.7083C37.2988 28.2652 37.0318 27.8643 36.6906 27.5318C36.3493 27.1993 35.9416 26.9428 35.4941 26.7792C35.0467 26.6156 34.5696 26.5485 34.0944 26.5824M18.3392 22.9024V20.7216C16.2658 19.9518 14.5202 18.4925 13.3951 16.5884C12.27 14.6843 11.8338 12.4513 12.1598 10.2638C12.4857 8.07628 13.5539 6.06737 15.1852 4.57396C16.8165 3.08056 18.9117 2.1935 21.1194 2.06154C23.3271 1.92959 25.513 2.56078 27.3106 3.84924C29.1082 5.1377 30.408 7.00508 30.9922 9.13819C31.5763 11.2713 31.4093 13.5404 30.519 15.5649C29.6287 17.5895 28.0693 19.2463 26.1024 20.2576V22.5232C28.6583 21.4845 30.7646 19.5754 32.0487 17.1336C33.3328 14.6917 33.7119 11.8743 33.119 9.17988C32.5262 6.48541 30.9995 4.08741 28.8091 2.41001C26.6187 0.732608 23.9056 -0.116114 21.1498 0.0139536C18.3939 0.144022 15.7729 1.2445 13.7502 3.12075C11.7275 4.997 10.4335 7.52812 10.097 10.2665C9.76057 13.0048 10.4034 15.7739 11.9117 18.084C13.4201 20.394 15.6968 22.0963 18.3392 22.8896" fill="currentColor"/>
</svg>
