<svg width="48" height="48" viewBox="0 0 48 48" fill="none" xmlns="http://www.w3.org/2000/svg">
<path d="M46.5451 8.56693C46.4798 8.41978 46.374 8.2943 46.2399 8.20522C46.1058 8.11615 45.9491 8.06717 45.7881 8.06405L39.0846 7.93288C39.1884 7.75422 39.2231 7.54368 39.1819 7.34118C39.1408 7.13868 39.0268 6.95831 38.8616 6.83429C38.6963 6.71026 38.4913 6.6512 38.2853 6.66831C38.0794 6.68542 37.8869 6.77751 37.7444 6.92712L36.8988 0.731819C36.877 0.572392 36.8101 0.422499 36.7061 0.299707C36.6021 0.176915 36.4653 0.0863104 36.3116 0.0385118C36.158 -0.00928672 35.9939 -0.0122991 35.8385 0.0298278C35.6832 0.0719547 35.5432 0.157475 35.4347 0.276368L31.8613 4.2007C31.7592 4.27235 31.6742 4.36575 31.6125 4.47417L27.465 9.02868C27.3793 9.12278 27.3159 9.23502 27.2795 9.35703C27.2431 9.47905 27.2348 9.60769 27.255 9.73339L27.6596 12.2391C23.9801 10.5307 19.8457 10.0616 15.877 10.9022C11.9082 11.7428 8.31906 13.8477 5.64809 16.9012C2.97712 19.9546 1.36838 23.7919 1.06327 27.8372C0.758166 31.8826 1.77314 35.9177 3.9559 39.3373C6.13866 42.7568 9.37149 45.3763 13.1693 46.8027C16.9671 48.229 21.125 48.3853 25.0192 47.2481C28.9133 46.111 32.3337 43.7416 34.767 40.4956C37.2004 37.2496 38.5155 33.302 38.5149 29.2452C38.5149 25.164 37.5813 21.8268 35.7406 19.3264C35.604 19.156 35.4069 19.0449 35.1903 19.0165C34.9738 18.988 34.7546 19.0444 34.5786 19.1737C34.4027 19.3031 34.2835 19.4954 34.246 19.7106C34.2086 19.9258 34.2557 20.1471 34.3776 20.3283C36 22.5315 36.8224 25.5309 36.8224 29.2437C36.8274 32.9925 35.5995 36.639 33.328 39.6212C31.0564 42.6035 27.8673 44.756 24.2519 45.7472C20.6365 46.7384 16.7954 46.5133 13.3206 45.1065C9.84577 43.6996 6.92995 41.1892 5.0224 37.962C3.11485 34.7348 2.32143 30.9699 2.76438 27.2473C3.20734 23.5248 4.86209 20.0512 7.47368 17.3617C10.0853 14.6722 13.5088 12.9161 17.2167 12.364C20.9246 11.8119 24.7112 12.4944 27.9931 14.3063L28.5381 17.6798L27.0735 19.3918C24.6109 17.5742 21.5557 16.747 18.5125 17.074C15.4693 17.401 12.6596 18.8582 10.6393 21.1575C8.61901 23.4567 7.53525 26.4305 7.60242 29.4905C7.66959 32.5505 8.8828 35.4739 11.002 37.6823C13.1213 39.8907 15.9922 41.2232 19.0469 41.4163C22.1015 41.6094 25.1174 40.649 27.4979 38.7251C29.8784 36.8012 31.4501 34.0539 31.9021 31.0268C32.3541 27.9996 31.6535 24.913 29.9388 22.3776C29.8131 22.1915 29.6187 22.0629 29.3982 22.0201C29.1777 21.9774 28.9493 22.024 28.7632 22.1496C28.577 22.2753 28.4484 22.4698 28.4057 22.6903C28.3629 22.9107 28.4095 23.1392 28.5352 23.3253C30.0246 25.5247 30.6357 28.2023 30.2479 30.8301C29.8601 33.4579 28.5015 35.8449 26.4403 37.5203C24.379 39.1956 21.7647 40.0376 19.1132 39.8802C16.4616 39.7228 13.9653 38.5773 12.1168 36.6698C10.2683 34.7624 9.20171 32.2314 9.12756 29.5762C9.05341 26.921 9.97704 24.3344 11.7162 22.3267C13.4554 20.319 15.8839 19.0361 18.5226 18.7309C21.1612 18.4257 23.8184 19.1206 25.9699 20.6783L23.3321 23.7609C22.0204 22.9107 20.4469 22.5599 18.8982 22.7724C17.3495 22.9849 15.9287 23.7466 14.8944 24.9187C13.8602 26.0909 13.2813 27.5955 13.2633 29.1585C13.2452 30.7216 13.7892 32.2392 14.7961 33.4349C15.803 34.6306 17.2058 35.4249 18.7492 35.6731C20.2925 35.9213 21.8737 35.607 23.2047 34.7873C24.5358 33.9676 25.5282 32.6972 26.0011 31.2072C26.4741 29.7173 26.3962 28.1071 25.7817 26.6698C25.6934 26.4634 25.5268 26.3006 25.3185 26.2171C25.1102 26.1336 24.8772 26.1362 24.6709 26.2245C24.4645 26.3127 24.3017 26.4794 24.2182 26.6877C24.1347 26.896 24.1373 27.1289 24.2256 27.3353C24.6809 28.3994 24.742 29.5909 24.3979 30.6959C24.0538 31.801 23.3271 32.7472 22.3482 33.3647C21.3694 33.9822 20.2024 34.2306 19.0569 34.0652C17.9114 33.8998 16.8624 33.3315 16.0981 32.4624C15.3339 31.5932 14.9045 30.4801 14.887 29.3229C14.8695 28.1656 15.2651 27.04 16.0028 26.1482C16.7404 25.2564 17.7718 24.6567 18.9118 24.4568C20.0518 24.2569 21.2257 24.4699 22.2228 25.0576L19.112 28.6929C18.9681 28.8637 18.8975 29.0845 18.9156 29.3072C18.9337 29.5298 19.039 29.7363 19.2087 29.8816C19.3784 30.0268 19.5986 30.0992 19.8214 30.0828C20.0442 30.0664 20.2515 29.9626 20.3981 29.7941L30.1982 18.3439L37.9632 18.687H38.0004C38.1214 18.6871 38.241 18.6613 38.3512 18.6112C38.4613 18.5611 38.5594 18.4879 38.6388 18.3966L42.6818 13.7502C42.7822 13.6758 42.8648 13.5801 42.9238 13.4699L46.4086 9.46622C46.5146 9.34488 46.5838 9.19579 46.608 9.03648C46.6322 8.87717 46.6104 8.71427 46.5451 8.56693ZM35.4667 2.75497L36.2701 8.64292L34.0664 11.2183L33.2436 5.19824L35.4667 2.75497ZM31.7567 6.82935L32.5941 12.9395L29.9804 15.994L28.9911 9.86649L31.7567 6.82935ZM37.6302 16.977L31.5951 16.7104L34.126 13.7526L40.3275 13.8779L37.6302 16.977ZM41.7752 12.2144L35.5494 12.0886L37.6742 9.60561L37.6844 9.59835L43.945 9.72178L41.7752 12.2144Z" fill="currentColor"/>
</svg>
