<svg width="48" height="48" viewBox="0 0 48 48" fill="none" xmlns="http://www.w3.org/2000/svg">
<path fill-rule="evenodd" clip-rule="evenodd" d="M46.3427 23.7999C46.0442 24.4506 45.6087 25.0291 45.0659 25.4959C45.7894 25.9428 46.387 26.5678 46.8013 27.3104C47.2155 28.0531 47.433 28.8893 47.4332 29.7396V29.8181C47.4319 30.8671 47.0999 31.8891 46.4845 32.7386C45.869 33.5881 45.0014 34.2221 44.005 34.5502C44.4526 35.158 44.731 35.8736 44.8116 36.6241C44.8922 37.3746 44.7722 38.1331 44.4639 38.8221C44.1556 39.5111 43.67 40.1059 43.0566 40.5459C42.4433 40.9858 41.7242 41.2551 40.9727 41.3263C41.4097 42.0044 41.6415 42.7944 41.6401 43.6011V43.8025C41.6387 44.9184 41.1945 45.988 40.4049 46.7766C39.6154 47.5651 38.5451 48.008 37.4293 48.008H19.4692C16.8077 47.894 14.2134 47.1419 11.9044 45.8161C11.8945 45.8502 11.8827 45.8838 11.869 45.9168C11.8199 46.0353 11.748 46.1429 11.6573 46.2336C11.5666 46.3243 11.4589 46.3963 11.3404 46.4454C11.2219 46.4944 11.0949 46.5197 10.9666 46.5197V46.5178H0.976727C0.718018 46.5178 0.469877 46.4151 0.28676 46.2324C0.103644 46.0496 0.000512803 45.8017 0 45.543V20.1118C0.000128325 19.8528 0.10309 19.6045 0.286248 19.4214C0.469406 19.2384 0.717767 19.1355 0.976727 19.1355H10.9666C11.2256 19.1355 11.474 19.2384 11.6571 19.4214C11.8403 19.6045 11.9432 19.8528 11.9434 20.1118V20.3989C12.4125 20.1695 12.8604 19.8969 13.2812 19.5842C15.9214 17.4207 18.3202 12.6072 19.4063 10.3968C19.7707 6.83834 19.2311 1.71464 19.2253 1.66285C19.2075 1.49716 19.2323 1.32966 19.2976 1.17631C19.3628 1.02297 19.4662 0.88887 19.598 0.786796C20.11 0.434679 20.6898 0.1932 21.3004 0.0777776C21.9111 -0.0376451 22.539 -0.0244756 23.1443 0.116445C25.3199 0.599969 27.3029 2.5602 29.0395 5.94293C29.0619 5.98652 29.0809 6.03184 29.0961 6.07845C29.8584 8.34893 30.4983 12.811 29.5012 16.6739H41.8153C43.1358 16.6753 44.4017 17.2005 45.3353 18.1342C46.269 19.0679 46.794 20.3339 46.7953 21.6543V21.7259C46.7955 22.4418 46.6411 23.1492 46.3427 23.7999ZM11.9434 22.5213C12.8627 22.1668 13.7296 21.6862 14.5188 21.0924C17.192 18.9061 19.4145 14.8158 21.2358 11.1024C21.2855 11.0018 21.3171 10.8932 21.3292 10.7816C21.6705 7.7415 21.3723 3.69229 21.2324 2.11782C21.7096 1.94414 22.2268 1.91221 22.7217 2.02586C23.8025 2.26786 25.4656 3.28428 27.2714 6.76913C27.9926 8.97814 28.614 13.7079 27.2714 17.2784C26.6533 18.6142 24.893 22.2095 23.9051 23.3716C23.7374 23.5689 23.6548 23.8247 23.6757 24.0829C23.6966 24.341 23.8192 24.5803 24.0165 24.7481C24.2138 24.9158 24.4696 24.9984 24.7278 24.9775C24.9859 24.9566 25.2252 24.8341 25.393 24.6368C26.5023 23.3299 28.1518 19.9753 28.7951 18.6273H41.8197C42.6224 18.6281 43.392 18.9473 43.9596 19.5149C44.5272 20.0825 44.8464 20.8521 44.8472 21.6548V21.7264C44.8461 22.5289 44.5268 23.2983 43.9593 23.8657C43.3917 24.4331 42.6222 24.7521 41.8197 24.7529C41.5607 24.7529 41.3124 24.8558 41.1292 25.0389C40.9461 25.222 40.8432 25.4704 40.8432 25.7294C40.8432 25.9884 40.9461 26.2368 41.1292 26.4199C41.3124 26.603 41.5607 26.7059 41.8197 26.7059H42.4581C43.2615 26.7078 44.0312 27.0283 44.5986 27.597C45.166 28.1657 45.4846 28.9363 45.4846 29.7396V29.82C45.4836 30.6224 45.1644 31.3916 44.597 31.9589C44.0297 32.5263 43.2605 32.8455 42.4581 32.8465H40.6286C40.3733 32.8522 40.1305 32.9575 39.952 33.14C39.7735 33.3226 39.6736 33.5677 39.6736 33.823C39.6736 34.0783 39.7735 34.3234 39.952 34.5059C40.1305 34.6884 40.3733 34.7938 40.6286 34.7995C41.2314 34.8082 41.8067 35.0539 42.2299 35.4833C42.6531 35.9127 42.8904 36.4914 42.8904 37.0944C42.8904 37.6973 42.6531 38.2761 42.2299 38.7055C41.8067 39.1349 41.2314 39.3805 40.6286 39.3893H37.4341C37.1751 39.3893 36.9268 39.4922 36.7436 39.6753C36.5605 39.8584 36.4576 40.1068 36.4576 40.3658C36.4576 40.6248 36.5605 40.8731 36.7436 41.0563C36.9268 41.2394 37.1751 41.3423 37.4341 41.3423C38.033 41.3428 38.6072 41.5809 39.0308 42.0042C39.4544 42.4276 39.6927 43.0018 39.6935 43.6007V43.802C39.6919 44.4001 39.4532 44.9731 39.0296 45.3953C38.606 45.8176 38.0322 46.0545 37.4341 46.0541H19.4678C17.1092 45.9328 14.8138 45.25 12.7725 44.0624C12.5251 43.9156 12.2546 43.7644 11.9434 43.5993V22.5213ZM9.98992 22.1127V44.1464C9.98843 44.1775 9.98843 44.2087 9.98992 44.2398V44.5663H1.95297V21.0885H9.98992V21.5702C9.97163 21.6334 9.95973 21.6985 9.95452 21.7645C9.94523 21.8818 9.95726 21.9998 9.98992 22.1127Z" fill="currentColor"/>
</svg>