<svg width="48" height="48" viewBox="0 0 48 48" fill="none" xmlns="http://www.w3.org/2000/svg">
<path opacity="0.852" d="M48 24.0004C47.9999 28.7471 46.5923 33.3871 43.9551 37.3338C41.3179 41.2805 37.5696 44.3565 33.1843 46.173C28.7989 47.9894 23.9733 48.4646 19.3179 47.5386C14.6624 46.6125 10.3861 44.3268 7.02966 40.9704C3.67324 37.6139 1.38749 33.3376 0.461429 28.6821C-0.464627 24.0267 0.0106105 19.2011 1.82704 14.8157C3.64348 10.4304 6.71953 6.68209 10.6662 4.04491C14.6129 1.40774 19.253 9.6677e-05 23.9996 1.9906e-08C27.1515 -0.000128345 30.2724 0.620572 33.1843 1.82666C36.0963 3.03274 38.7421 4.80059 40.9708 7.02926C43.1994 9.25792 44.9673 11.9038 46.1734 14.8157C47.3794 17.7276 48.0001 20.8486 48 24.0004Z" fill="#333333"/>
<path d="M15.1777 24.0005V13.5641C15.1777 13.1163 15.2955 12.6764 15.5194 12.2886C15.7434 11.9008 16.0654 11.5787 16.4533 11.3549C16.8411 11.131 17.281 11.0132 17.7289 11.0133C18.1767 11.0134 18.6166 11.1314 19.0043 11.3554L28.0417 16.5734L37.0796 21.791C37.4673 22.015 37.7892 22.3371 38.0131 22.7249C38.2369 23.1127 38.3547 23.5526 38.3547 24.0003C38.3547 24.4481 38.2369 24.888 38.0131 25.2758C37.7892 25.6636 37.4673 25.9857 37.0796 26.2097L28.0417 31.4276L19.0043 36.6453C18.6165 36.8692 18.1766 36.987 17.7287 36.987C17.2809 36.987 16.841 36.8691 16.4532 36.6452C16.0654 36.4213 15.7433 36.0992 15.5194 35.7114C15.2956 35.3236 15.1777 34.8836 15.1777 34.4358V24.0005Z" fill="#F1F2F2"/>
</svg>
