<svg width="48" height="48" viewBox="0 0 48 48" fill="none" xmlns="http://www.w3.org/2000/svg">
<path fill-rule="evenodd" clip-rule="evenodd" d="M25.4316 7.01902C24.9219 7.01305 24.398 7.00691 23.8526 7C23.4262 7.00767 22.9806 7.01522 22.5222 7.02299C21.5455 7.03954 20.5102 7.05708 19.4766 7.07886C19.0615 7.08818 18.6464 7.0967 18.2313 7.10523C17.0682 7.12912 15.9052 7.15301 14.7429 7.19429C13.3425 7.24381 11.9433 7.31238 10.5452 7.4C9.15441 7.4549 7.76845 7.59689 6.39545 7.82514C5.81814 7.90898 5.24942 8.04399 4.69602 8.22857C3.87441 8.55624 3.1367 9.06393 2.53717 9.71429C2.15204 10.1134 1.82884 10.568 1.57831 11.0629C1.15556 12.0193 0.87821 13.0335 0.755451 14.072C0.647234 14.7008 0.583185 15.3379 0.519169 15.9748C0.504763 16.1181 0.490358 16.2614 0.475451 16.4046C0.40688 17.0731 0.340594 17.744 0.30288 18.4149C0.248023 19.4011 0.211451 20.3874 0.178309 21.3749C0.105928 23.493 0.128023 25.6095 0.244594 27.7246C0.300213 28.773 0.372213 29.8198 0.460594 30.8651C0.524594 31.6183 0.612594 32.3714 0.717737 33.12C0.769544 33.504 0.84857 33.8845 0.927566 34.2649C0.958356 34.4131 0.989141 34.5613 1.01831 34.7097C1.2238 35.9092 1.79256 37.0166 2.64772 37.8824C3.50288 38.7482 4.60321 39.3306 5.80002 39.5509C5.98828 39.5828 6.17573 39.6195 6.3631 39.6562C6.67165 39.7165 6.98 39.7769 7.29145 39.816C7.95545 39.9006 8.62288 39.9554 9.29031 40.0057C10.3463 40.0857 11.4035 40.1611 12.4617 40.2183C13.4183 40.2743 14.3749 40.3051 15.3326 40.3326C16.2675 40.36 17.2023 40.376 18.1383 40.3886C18.7003 40.3967 19.2627 40.4068 19.8251 40.417C21.3259 40.444 22.8271 40.4711 24.3235 40.4594C26.6827 40.4416 29.0448 40.3918 31.4064 40.342C32.0729 40.328 32.7394 40.3139 33.4057 40.3006C34.2126 40.2846 35.024 40.248 35.824 40.2023C36.7001 40.1519 37.5745 40.0897 38.4494 40.0275C38.6268 40.0149 38.8043 40.0022 38.9817 39.9897C40.0918 39.922 41.1963 39.7815 42.288 39.5691C43.0926 39.4286 43.859 39.1219 44.5383 38.6686C45.4994 38.0219 46.2534 37.1116 46.7097 36.0469C47.0302 35.2059 47.2485 34.3296 47.36 33.4366C47.4775 32.6957 47.5525 31.9487 47.6275 31.2023L47.6389 31.0891C47.7128 30.3486 47.773 29.6072 47.8195 28.8651C47.8576 28.2526 47.8807 27.6384 47.9038 27.0246C47.9076 26.9215 47.9115 26.8185 47.9155 26.7154L47.9219 26.5451C47.953 25.7218 47.9841 24.8974 48.0012 24.0731C48.0084 23.7428 47.9962 23.4124 47.984 23.0821C47.9809 22.9964 47.9777 22.9108 47.9749 22.8251C47.9626 22.4829 47.9521 22.1404 47.9416 21.7978C47.92 21.0914 47.8983 20.3846 47.8606 19.6789C47.7955 18.4811 47.7177 17.2823 47.6092 16.088C47.5094 14.9192 47.3288 13.7587 47.0686 12.6149C46.8638 11.6322 46.4185 10.7157 45.7726 9.94743C44.9026 8.89274 43.6856 8.18215 42.3395 7.94286C42.1633 7.91197 41.9878 7.87728 41.8123 7.84259C41.4878 7.77846 41.1633 7.71434 40.8355 7.67429C40.0789 7.58171 39.3189 7.51543 38.5589 7.45943C37.4355 7.37714 36.2983 7.30286 35.1875 7.24686C34.1221 7.19315 33.0546 7.16467 31.988 7.13622L31.8515 7.13257C30.6812 7.10133 29.5109 7.07619 28.3406 7.05714C27.3898 7.04197 26.4385 7.03082 25.4316 7.01902ZM31.7525 23.7457L19.264 16.5474V30.944L31.7525 23.7457Z" fill="currentColor"/>
<path d="M0 23.1097C0.00229311 23.2393 0.00484184 23.3687 0.00738974 23.4981C0.0124609 23.7556 0.0175287 24.013 0.0205714 24.2709C0.017758 24.3451 0.0108907 24.4191 0 24.4926V23.1097Z" fill="currentColor"/>
<path d="M20.3554 40.5486C20.416 40.5394 20.4771 40.5333 20.5383 40.5303H27.6126C27.6689 40.5337 27.725 40.5406 27.7806 40.5509H20.352L20.3554 40.5486Z" fill="currentColor"/>
</svg>
