<svg width="164" height="101" viewBox="0 0 164 101" fill="none" xmlns="http://www.w3.org/2000/svg">
<path d="M145.946 23.3841C146.45 23.3854 146.942 23.2316 147.355 22.9435C147.769 22.6554 148.084 22.247 148.257 21.7738C148.43 21.3007 148.454 20.7856 148.324 20.2987C148.194 19.8118 147.918 19.3766 147.532 19.0522C147.146 18.7279 146.67 18.5301 146.168 18.4858C145.666 18.4414 145.163 18.5526 144.726 18.8044C144.289 19.0561 143.941 19.4361 143.728 19.8927C143.515 20.3493 143.447 20.8605 143.535 21.3567C143.632 21.9253 143.927 22.4413 144.368 22.8126C144.81 23.1838 145.369 23.3864 145.946 23.3841Z" fill="#3DB5B1"/>
<path d="M122.539 89.9523C122.71 89.9521 122.881 89.9341 123.048 89.8987C123.363 89.8329 123.663 89.7055 123.929 89.5237C124.195 89.342 124.422 89.1095 124.598 88.8396C124.774 88.5698 124.894 88.2678 124.953 87.9512C125.012 87.6345 125.007 87.3094 124.94 86.9944C124.824 86.4449 124.523 85.9519 124.087 85.5974C123.651 85.2429 123.107 85.0484 122.545 85.0463C122.374 85.0465 122.203 85.0648 122.035 85.1009C121.442 85.2257 120.916 85.5657 120.559 86.0553C120.202 86.545 120.039 87.1494 120.102 87.7521C120.164 88.3548 120.448 88.913 120.898 89.3189C121.348 89.7249 121.932 89.9498 122.538 89.9503" fill="#9B3C8E"/>
<path d="M148.085 74.4281C148.151 74.7433 148.279 75.0424 148.461 75.3082C148.642 75.5741 148.875 75.8014 149.145 75.9773C149.415 76.1532 149.717 76.2741 150.033 76.3332C150.35 76.3923 150.675 76.3884 150.991 76.3216C151.627 76.187 152.183 75.8056 152.538 75.2611C152.893 74.7166 153.018 74.0535 152.885 73.4174C152.767 72.868 152.465 72.3754 152.029 72.021C151.593 71.6667 151.049 71.472 150.488 71.4693C150.317 71.469 150.147 71.4873 149.981 71.5238C149.344 71.6577 148.787 72.0389 148.431 72.5835C148.076 73.1281 147.951 73.7916 148.085 74.4281Z" fill="#FFCC52"/>
<path d="M135.277 58.5667C135.495 58.5664 135.712 58.5434 135.926 58.4982C136.327 58.4139 136.708 58.2513 137.046 58.0197C137.385 57.7881 137.674 57.4921 137.898 57.1485C138.122 56.805 138.276 56.4207 138.351 56.0176C138.426 55.6146 138.421 55.2006 138.336 54.7995C138.187 54.0998 137.803 53.4722 137.248 53.0211C136.693 52.5699 136 52.3224 135.285 52.3197C135.067 52.3192 134.849 52.3418 134.636 52.3872C133.88 52.5457 133.209 52.9787 132.754 53.6026C132.299 54.2265 132.091 54.9971 132.17 55.7653C132.25 56.5335 132.612 57.245 133.185 57.7622C133.759 58.2794 134.504 58.5667 135.277 58.5667Z" fill="#EE5338"/>
<path d="M119.742 16.3417C118.83 16.3409 117.954 16.7026 117.308 17.3472C116.662 17.9919 116.299 18.8666 116.298 19.7791C116.298 20.6915 116.659 21.5669 117.304 22.2127C117.949 22.8584 118.824 23.2217 119.736 23.2224C120.649 23.2232 121.525 22.8615 122.171 22.2169C122.816 21.5722 123.18 20.6975 123.181 19.785C123.181 18.8726 122.82 17.9972 122.175 17.3514C121.53 16.7057 120.655 16.3424 119.742 16.3417Z" fill="#3DB5B1"/>
<path d="M60.3216 66.2311L59.4883 66.3193C58.1489 66.4904 56.8014 66.5898 55.4514 66.6169H55.1994C51.741 66.5683 51.0088 64.9882 51.0058 63.672C50.9999 61.6118 52.488 60.4513 55.1974 60.4066C55.376 60.4066 55.5556 60.4017 55.7342 60.4017C57.2075 60.3979 58.6789 60.5117 60.1341 60.7419L60.3206 60.7707L60.3216 66.2311ZM56.2709 47.2005C56.0606 47.2005 55.8562 47.2005 55.6588 47.2005C53.2106 47.2178 50.7717 47.5031 48.3857 48.0516L48.7081 53.3166C50.7636 52.8846 52.858 52.6649 54.9583 52.6609C55.383 52.6609 55.8215 52.6679 56.2818 52.6818C58.9605 52.7681 60.3226 53.7282 60.3226 55.5364L60.3107 56.3657L59.8038 56.3032C58.1953 56.0775 56.5726 55.9694 54.9484 55.9798C46.9412 55.9798 45.2606 59.9553 45.2606 63.2891C45.2606 68.3418 48.5603 71.3978 54.0833 71.4693C54.3165 71.4693 54.5436 71.4693 54.7778 71.4693C58.8513 71.4388 62.915 71.0661 66.926 70.3554V55.2785C66.926 50.3131 62.9418 47.2928 56.2699 47.2025" fill="#ffffff"/>
<path d="M31.8325 65.867C30.9854 65.8694 30.1466 65.7001 29.3667 65.3694C28.5868 65.0388 27.882 64.5535 27.2948 63.943C26.7076 63.3325 26.2503 62.6094 25.9503 61.8173C25.6504 61.0252 25.514 60.1806 25.5495 59.3344C25.5142 58.4845 25.6511 57.6362 25.952 56.8405C26.2529 56.0449 26.7117 55.3182 27.3006 54.7044C27.8896 54.0905 28.5967 53.602 29.3793 53.2683C30.162 52.9346 31.004 52.7626 31.8548 52.7626C32.7057 52.7626 33.5477 52.9346 34.3303 53.2683C35.113 53.602 35.82 54.0905 36.409 54.7044C36.998 55.3182 37.4567 56.0449 37.7577 56.8405C38.0586 57.6362 38.1955 58.4845 38.1601 59.3344C38.1438 61.0268 37.4778 62.6483 36.2998 63.8639C35.1219 65.0794 33.5219 65.7962 31.8305 65.866M31.8305 47.1996C24.744 47.1996 19.3995 52.4159 19.3995 59.3334C19.3995 66.2241 24.744 71.4197 31.8305 71.4197C38.9449 71.4197 44.3111 66.2231 44.3111 59.3334C44.3111 52.4149 38.9449 47.1996 31.8305 47.1996Z" fill="#ffffff"/>
<path d="M82.1627 65.9573C81.9643 65.9573 81.7708 65.9573 81.5774 65.9434C79.8569 65.9098 78.2202 65.1944 77.0273 63.9544C75.8343 62.7145 75.1828 61.0516 75.216 59.3314C75.1703 58.4796 75.2976 57.6273 75.5903 56.826C75.8831 56.0247 76.3351 55.291 76.9192 54.6691C77.5033 54.0472 78.2073 53.5501 78.9888 53.2077C79.7703 52.8653 80.613 52.6847 81.4662 52.6768C81.5744 52.6768 81.6805 52.6768 81.7867 52.6768C83.5262 52.6729 85.2593 52.8868 86.9456 53.3136L87.1976 48.0565C85.369 47.5589 83.4892 47.2734 81.5952 47.2055C81.4286 47.2055 81.2609 47.2055 81.0863 47.2134H81.0029C73.9729 47.5219 69.064 52.5062 69.064 59.3294C69.064 66.1825 74.1237 71.2639 81.0992 71.4117L81.3968 71.4167C83.3862 71.3935 85.3643 71.1134 87.2819 70.5835L87.0369 65.3205C85.4382 65.7036 83.8033 65.9157 82.1597 65.9533" fill="#ffffff"/>
<path d="M13.0957 65.9573C12.8973 65.9573 12.7038 65.9573 12.5124 65.9434C10.7921 65.9095 9.15576 65.1941 7.9629 63.9545C6.77005 62.7148 6.11833 61.0523 6.15102 59.3324C6.10529 58.4806 6.23263 57.6283 6.52534 56.827C6.81806 56.0257 7.27009 55.292 7.85417 54.6701C8.43825 54.0482 9.14227 53.5511 9.92377 53.2087C10.7053 52.8663 11.548 52.6857 12.4012 52.6778C12.5094 52.6778 12.6155 52.6778 12.7217 52.6778C14.4612 52.6735 16.1944 52.8875 17.8806 53.3146L18.1326 48.0575C16.304 47.5599 14.4241 47.2744 12.5302 47.2065C12.3635 47.2065 12.1959 47.2065 12.0213 47.2144H11.9379C4.91089 47.5249 0 52.5092 0 59.3324C0 66.1854 5.05971 71.2669 12.0371 71.4147L12.3348 71.4197C14.3242 71.3964 16.3023 71.1164 18.2199 70.5865L17.9749 65.3235C16.3761 65.7065 14.7412 65.9187 13.0977 65.9563" fill="#ffffff"/>
<path d="M96.0789 41.3563H89.4775V63.2861C89.4356 64.4549 89.6663 65.6174 90.1514 66.6817C90.6364 67.7459 91.3625 68.6827 92.2722 69.418C94.0604 70.7659 96.2508 71.4718 98.4897 71.4217C99.7397 71.405 100.986 71.2772 102.213 71.0398V65.3681C101.241 65.4907 100.263 65.5487 99.2834 65.5417C98.5314 65.5417 96.0789 65.1658 96.0789 61.6227V52.6371H102.213V47.2164H96.0789V41.3563Z" fill="#ffffff"/>
<path d="M122.548 73.9867L121.97 73.9788C122.097 75.9801 121.765 77.984 121 79.8379C122.581 79.5198 124.221 79.698 125.696 80.3482C127.171 80.9984 128.409 82.0887 129.241 83.4697C130.072 84.8507 130.456 86.455 130.34 88.0626C130.223 89.6702 129.613 91.2026 128.592 92.4498C127.57 93.697 126.188 94.598 124.635 95.0294C123.082 95.4608 121.433 95.4014 119.915 94.8594C118.396 94.3174 117.083 93.3193 116.154 92.0019C115.225 90.6845 114.727 89.1121 114.726 87.5003C114.728 86.9048 114.798 86.3114 114.935 85.7317C115.252 84.0823 115.864 82.5033 116.739 81.0698C120.869 73.9678 117.109 68.5134 114.37 66.6814C112.658 65.4917 110.62 64.8595 108.535 64.8712V70.5924C108.578 70.5924 108.619 70.5924 108.651 70.5924C109.415 70.5884 110.166 70.7943 110.821 71.1876C111.895 71.8363 114.03 73.8746 111.982 78.0604C111.454 79.1376 109.079 82.8215 109.033 87.3178L109.04 87.4914C109.04 90.1627 109.832 92.774 111.317 94.995C112.801 97.216 114.911 98.947 117.38 99.9692C119.848 100.991 122.565 101.259 125.185 100.737C127.806 100.216 130.213 98.9296 132.102 97.0407C133.991 95.1517 135.278 92.745 135.799 90.125C136.32 87.505 136.053 84.7893 135.03 82.3214C134.008 79.8534 132.276 77.744 130.054 76.2599C127.833 74.7758 125.221 73.9837 122.549 73.9837" fill="#9B3C8E"/>
<path d="M154.057 60.9066C153.509 62.7863 152.681 64.5729 151.601 66.2063C153.083 66.4202 154.473 67.0556 155.604 68.0368C156.735 69.0179 157.561 70.3036 157.982 71.7405C158.403 73.1775 158.403 74.7052 157.98 76.1417C157.557 77.5782 156.73 78.863 155.598 79.8431C154.466 80.8231 153.075 81.4571 151.593 81.6695C150.11 81.8819 148.598 81.6638 147.236 81.0412C145.874 80.4185 144.719 79.4176 143.91 78.1576C143.101 76.8975 142.671 75.4315 142.672 73.9341C142.672 73.7972 142.684 73.6624 142.692 73.5275C142.775 71.8829 143.377 70.3069 144.411 69.0252C144.578 68.8209 144.854 68.5085 145.105 68.2496C145.294 68.0562 145.492 67.8796 145.492 67.8796C147.235 66.4493 148.658 64.669 149.669 62.654C150.679 60.639 151.255 58.4342 151.36 56.1824C151.464 53.9306 151.094 51.682 150.274 49.5823C149.453 47.4826 148.201 45.5785 146.598 43.9934C144.995 42.4083 143.077 41.1775 140.968 40.3807C138.859 39.584 136.606 39.239 134.355 39.3682C132.104 39.4973 129.905 40.0978 127.901 41.1305C125.897 42.1633 124.132 43.6055 122.721 45.3636C122.721 45.3636 122.596 45.5143 122.444 45.676C121.766 46.3973 120.874 46.8809 119.899 47.0547C118.881 47.2005 117.851 47.2523 116.824 47.2095C112.211 47.2095 111.433 47.2095 108.532 47.2154V52.6371H119.423C120.879 52.6231 122.315 52.2944 123.632 51.6734C124.95 51.0524 126.117 50.1539 127.054 49.0395C127.957 47.8837 129.094 46.9315 130.39 46.2452C131.686 45.5589 133.113 45.1541 134.576 45.0571C136.04 44.9602 137.507 45.1733 138.883 45.6826C140.258 46.1919 141.51 46.9859 142.558 48.0125C143.605 49.0392 144.424 50.2754 144.96 51.6403C145.497 53.0051 145.739 54.4679 145.671 55.9327C145.603 57.3976 145.226 58.8316 144.565 60.1408C143.904 61.45 142.975 62.605 141.836 63.5301L141.456 63.8922C140.044 65.1566 138.915 66.7046 138.143 68.435C137.371 70.1654 136.973 72.0393 136.974 73.9341C136.974 74.2605 136.99 74.5828 137.014 74.9062C137.192 77.376 138.047 79.7491 139.483 81.7662C140.92 83.7832 142.884 85.3666 145.16 86.343C147.436 87.3195 149.937 87.6515 152.389 87.3027C154.841 86.9539 157.15 85.9379 159.063 84.3655C160.976 82.7932 162.42 80.7252 163.238 78.3876C164.055 76.05 164.213 73.5328 163.696 71.1112C163.178 68.6897 162.005 66.4569 160.304 64.6572C158.602 62.8574 156.439 61.5599 154.05 60.9066" fill="#FFCC52"/>
<path d="M119.215 56.1673H119.17C119.345 59.5519 120.562 62.7998 122.654 65.4663C123.983 67.1379 125.632 68.5271 127.505 69.5524C129.378 70.5776 131.437 71.2182 133.561 71.4365C133.635 71.4425 133.693 71.4514 133.752 71.4564C134.04 69.4929 134.673 67.5959 135.622 65.8531C134.182 65.8979 132.747 65.6439 131.41 65.1071C130.073 64.5703 128.861 63.7623 127.851 62.734C126.842 61.7058 126.056 60.4796 125.544 59.1328C125.032 57.786 124.804 56.3477 124.876 54.9086C123.104 55.7405 121.171 56.171 119.215 56.1693" fill="#EE5338"/>
<path d="M110.824 36.3472C112.29 37.1387 113.854 37.7311 115.476 38.1088C115.582 38.1336 115.687 38.1554 115.793 38.1792C116.065 38.2358 116.337 38.2893 116.611 38.336C116.788 38.3657 116.965 38.3935 117.142 38.4193C117.274 38.4371 117.406 38.456 117.539 38.4728C117.867 38.5115 118.198 38.5413 118.531 38.5651L118.61 38.571C118.954 38.5949 119.298 38.6127 119.646 38.6177C122.341 38.6399 125.008 38.0793 127.465 36.9743C129.923 35.8694 132.112 34.2461 133.883 32.216C132.5 30.7324 131.405 29.0045 130.655 27.1206C129.419 28.9582 127.739 30.4533 125.77 31.4665C123.8 32.4798 121.607 32.9781 119.393 32.9153C117.214 32.8058 115.087 32.2064 113.172 31.1616C112.853 30.9868 112.544 30.7955 112.245 30.5883C110.645 29.4575 107.086 26.5215 102.172 26.4402C101.436 26.4276 100.7 26.479 99.9719 26.5939C93.5381 27.5977 90.5182 31.9353 89.7235 36.1657H96.564C96.9819 35.0781 97.6947 34.1285 98.6225 33.4234C99.5503 32.7184 100.656 32.2858 101.816 32.1743C105.065 31.8926 107.429 34.2434 108.59 35.0121C109.312 35.4952 110.059 35.9402 110.827 36.3452" fill="#EE5338"/>
<path d="M107.316 24.0566C107.316 24.0566 107.293 23.9783 107.242 23.8017C106.665 21.9975 106.485 20.0898 106.715 18.2095C106.945 16.3293 107.579 14.521 108.574 12.9088C109.568 11.2966 110.9 9.91868 112.477 8.86956C114.055 7.82043 115.841 7.12497 117.712 6.83089C119.584 6.53681 121.497 6.65108 123.321 7.16585C125.144 7.68063 126.834 8.58373 128.276 9.81317C129.717 11.0426 130.875 12.5693 131.671 14.2884C132.466 16.0075 132.88 17.8784 132.885 19.7726C132.885 19.7726 132.863 20.5552 132.863 20.954C132.86 24.4245 134.237 27.7539 136.689 30.2098C139.142 32.6657 142.47 34.0469 145.941 34.0495C149.413 34.0521 152.743 32.676 155.199 30.2238C157.655 27.7717 159.037 24.4443 159.039 20.9738V20.954C159.04 18.6655 158.44 16.417 157.299 14.4329C156.158 12.4487 154.517 10.7983 152.54 9.64641C150.562 8.49449 148.316 7.88131 146.027 7.86807C143.739 7.85484 141.486 8.442 139.495 9.57098C140.398 11.3099 141.065 13.1611 141.479 15.076C142.804 14.0752 144.428 13.5513 146.088 13.5893C147.748 13.6272 149.347 14.2248 150.625 15.285C151.902 16.3453 152.784 17.806 153.127 19.4303C153.47 21.0546 153.255 22.7471 152.515 24.2334C151.775 25.7196 150.555 26.9124 149.052 27.6182C147.549 28.324 145.852 28.5015 144.235 28.1218C142.619 27.7421 141.178 26.8275 140.147 25.5265C139.115 24.2254 138.554 22.6141 138.554 20.954C138.554 20.5503 138.554 19.7726 138.554 19.7726C138.56 17.1666 138.024 14.5878 136.98 12.1998C135.936 9.81184 134.407 7.6669 132.49 5.90108C130.573 4.13527 128.31 2.78714 125.844 1.94225C123.378 1.09736 120.763 0.774147 118.166 0.993132C115.569 1.21212 113.045 1.96851 110.756 3.21432C108.466 4.46013 106.461 6.16816 104.867 8.23C103.273 10.2918 102.124 12.6625 101.495 15.1915C100.866 17.7205 100.77 20.3526 101.212 22.9209C103.308 22.8188 105.399 23.207 107.319 24.0546" fill="#3DB5B1"/>
<path d="M100.86 75.1839C100.592 75.1839 100.33 75.1046 100.108 74.9559C99.8854 74.8072 99.712 74.5959 99.6096 74.3487C99.5072 74.1015 99.4804 73.8295 99.5326 73.567C99.5848 73.3046 99.7136 73.0635 99.9028 72.8743C100.092 72.6851 100.333 72.5562 100.596 72.504C100.858 72.4518 101.13 72.4786 101.377 72.581C101.625 72.6834 101.836 72.8568 101.984 73.0793C102.133 73.3018 102.212 73.5634 102.212 73.831C102.212 74.1896 102.069 74.5335 101.816 74.7871C101.562 75.0407 101.218 75.1834 100.86 75.1839ZM100.86 72.6933C100.635 72.6933 100.415 72.76 100.227 72.885C100.04 73.01 99.8945 73.1877 99.8084 73.3956C99.7223 73.6035 99.6998 73.8322 99.7437 74.0529C99.7876 74.2736 99.8959 74.4763 100.055 74.6355C100.214 74.7946 100.417 74.9029 100.638 74.9468C100.858 74.9907 101.087 74.9682 101.295 74.8821C101.503 74.796 101.68 74.6501 101.805 74.463C101.931 74.276 101.997 74.056 101.997 73.831C101.997 73.5293 101.877 73.2401 101.664 73.0268C101.45 72.8135 101.161 72.6935 100.86 72.6933Z" fill="#ffffff"/>
<path d="M100.323 73.1446H100.936C101.014 73.1431 101.091 73.1552 101.164 73.1803C101.226 73.2011 101.283 73.2349 101.331 73.2795C101.367 73.3176 101.396 73.3624 101.415 73.4114C101.436 73.4639 101.446 73.5198 101.445 73.576C101.447 73.6281 101.438 73.6799 101.42 73.7288C101.405 73.7724 101.382 73.8131 101.353 73.8488C101.325 73.8838 101.292 73.9134 101.253 73.9361C101.212 73.9609 101.168 73.9796 101.122 73.9917L101.492 74.5114H101.208L100.87 74.0333H100.572V74.5114H100.332L100.323 73.1446ZM100.918 73.825C100.992 73.8288 101.065 73.8067 101.125 73.7625C101.149 73.7425 101.169 73.7169 101.183 73.6878C101.196 73.6587 101.202 73.6269 101.201 73.5949C101.203 73.5626 101.197 73.5303 101.184 73.5006C101.171 73.4709 101.152 73.4448 101.127 73.4243C101.065 73.3826 100.991 73.3624 100.916 73.3668H100.564V73.83L100.918 73.825Z" fill="#ffffff"/>
</svg>
