<svg width="32" height="29" xmlns="http://www.w3.org/2000/svg"><path d="M6.588 28.026c-2.091 0-3.712-.802-4.863-2.405C.575 24.017 0 21.68 0 18.614c0-4.183.941-7.808 2.824-10.875C4.706 4.67 7.46 2.092 11.085 0l2.51 4.078c-2.65 1.743-4.636 3.608-5.961 5.595-1.325 1.987-1.987 4.445-1.987 7.373.21-.07.523-.105.941-.105 1.395 0 2.667.453 3.817 1.36 1.15.906 1.726 2.23 1.726 3.974 0 1.812-.523 3.224-1.569 4.235-1.046 1.01-2.37 1.516-3.974 1.516zm18.405 0c-2.091 0-3.712-.802-4.862-2.405-1.15-1.604-1.726-3.94-1.726-7.007 0-4.183.941-7.808 2.824-10.875C23.11 4.67 25.865 2.092 29.49 0L32 4.078c-2.65 1.743-4.636 3.608-5.96 5.595-1.325 1.987-1.988 4.445-1.988 7.373.21-.07.523-.105.941-.105 1.395 0 2.667.453 3.817 1.36 1.15.906 1.726 2.23 1.726 3.974 0 1.812-.523 3.224-1.569 4.235-1.045 1.01-2.37 1.516-3.974 1.516z" fill="#B2519E" fill-rule="evenodd"/></svg>