<svg width="32" height="28" xmlns="http://www.w3.org/2000/svg"><path d="M25.412 0c2.091 0 3.712.802 4.863 2.405C31.425 4.01 32 6.345 32 9.412c0 4.183-.941 7.808-2.824 10.876-1.882 3.067-4.636 5.647-8.261 7.738l-2.51-4.078c2.65-1.743 4.636-3.608 5.961-5.595 1.325-1.987 1.987-4.444 1.987-7.373-.21.07-.523.105-.941.105-1.395 0-2.667-.453-3.817-1.36-1.15-.906-1.726-2.23-1.726-3.973 0-1.813.523-3.225 1.569-4.236C22.484.506 23.808 0 25.412 0zM7.007 0c2.091 0 3.712.802 4.862 2.405 1.15 1.604 1.726 3.94 1.726 7.007 0 4.183-.941 7.808-2.824 10.876-1.882 3.067-4.636 5.647-8.261 7.738L0 23.948c2.65-1.743 4.636-3.608 5.96-5.595 1.325-1.987 1.988-4.444 1.988-7.373-.21.07-.523.105-.941.105-1.395 0-2.667-.453-3.817-1.36-1.15-.906-1.726-2.23-1.726-3.973 0-1.813.523-3.225 1.569-4.236C4.078.506 5.403 0 7.007 0z" fill="#B2519E" fill-rule="evenodd"/></svg>