<svg width="240" height="77" viewBox="0 0 240 77" xmlns="http://www.w3.org/2000/svg"><g fill="none" fill-rule="evenodd"><path d="M111.358 17.765a1.857 1.857 0 0 0 1.535-.798c.286-.409.396-.906.31-1.399a1.867 1.867 0 0 0-2.168-1.518c-.492.086-.921.36-1.207.769-.286.41-.397.907-.31 1.399a1.868 1.868 0 0 0 1.84 1.547" fill="#4CB9B0"/><path d="M93.499 68.567c.13 0 .261-.013.389-.041a1.866 1.866 0 0 0 1.444-2.215 1.878 1.878 0 0 0-1.828-1.487 1.874 1.874 0 0 0-1.835 2.259 1.88 1.88 0 0 0 1.83 1.484" fill="#A34C8D"/><path d="M112.99 56.721a1.876 1.876 0 0 0 2.218 1.444 1.855 1.855 0 0 0 1.18-.807c.274-.42.367-.921.264-1.408a1.877 1.877 0 0 0-2.216-1.446 1.873 1.873 0 0 0-1.446 2.217" fill="#F7C565"/><path d="M103.217 44.615c.166 0 .332-.017.495-.052a2.361 2.361 0 0 0 1.504-1.028 2.367 2.367 0 0 0 .335-1.794 2.39 2.39 0 0 0-2.822-1.841 2.388 2.388 0 0 0-1.843 2.825 2.395 2.395 0 0 0 2.331 1.89" fill="#E2644A"/><path d="M91.365 12.39a2.628 2.628 0 0 0-2.585 3.081 2.618 2.618 0 0 0 3.039 2.13 2.607 2.607 0 0 0 1.695-1.08c.402-.574.556-1.27.434-1.96a2.62 2.62 0 0 0-2.583-2.171" fill="#4CB9B0"/><path d="M42.936 35.941c-.162-.002-.316-.004-.468-.004-2.081 0-3.268.218-5.549.65l.247 4.018c1.853-.359 3.205-.502 4.768-.502.323 0 .658.006 1.009.018 2.046.066 3.083.799 3.083 2.179l-.008.632-.388-.048a25.65 25.65 0 0 0-3.705-.246c-6.109 0-7.39 3.034-7.39 5.579 0 3.855 2.515 6.188 6.732 6.242.174.002.351.004.526.004 4.441 0 8.491-.707 9.272-.851V42.103c0-3.789-3.039-6.093-8.129-6.162m3.09 14.522l-.636.068c-1.192.127-2.133.228-3.08.228l-.192-.002c-2.639-.038-3.198-1.244-3.201-2.248-.004-1.573 1.131-2.457 3.2-2.492a21.35 21.35 0 0 1 3.767.254l.142.024v4.168M24.289 35.941c-5.408 0-9.485 3.98-9.485 9.259 0 5.26 4.077 9.225 9.485 9.225 5.429 0 9.522-3.965 9.522-9.225 0-5.279-4.093-9.259-9.522-9.259m0 14.244c-2.732 0-4.792-2.142-4.792-4.985 0-2.814 2.105-5.019 4.792-5.019 2.708 0 4.829 2.205 4.829 5.019 0 2.655-2.257 4.985-4.829 4.985m38.403.071a9.36 9.36 0 0 1-.446-.01c-2.813-.137-4.855-2.259-4.855-5.046 0-2.899 2.007-5.035 4.773-5.078l.244-.003c1.912 0 3.402.346 3.934.486l.192-4.011c-.524-.141-2.549-.65-4.274-.65-.127 0-.255.003-.389.007l-.062.001c-5.365.237-9.111 4.039-9.111 9.248 0 5.23 3.862 9.108 9.184 9.22l.227.005c2.102 0 3.999-.496 4.492-.636l-.189-4.018c-.559.133-2.189.485-3.72.485m-52.696 0c-.15 0-.3-.003-.447-.01-2.813-.137-4.854-2.259-4.854-5.046 0-2.899 2.008-5.035 4.773-5.078l.243-.003c1.913 0 3.403.346 3.935.486l.191-4.011c-.523-.141-2.548-.65-4.275-.65-.125 0-.253.003-.388.007l-.062.001C3.748 36.189.001 39.991.001 45.2c0 5.23 3.862 9.108 9.185 9.22l.227.005c2.102 0 3.999-.496 4.491-.636l-.189-4.018c-.559.133-2.188.485-3.719.485M73.31 31.48h-5.038v16.737c0 1.948.737 3.565 2.132 4.679 1.235.987 2.92 1.529 4.744 1.529 1.161 0 2.296-.188 2.842-.291v-4.327a17.06 17.06 0 0 1-2.236.13c-.574 0-2.444-.287-2.444-2.989V40.09h4.68v-4.137h-4.68V31.48" fill="#3B3A39"/><path d="M93.505 56.383l-.441-.007c.006.711.153 2.237-.74 4.472a5.966 5.966 0 0 1 7.142 5.847 5.966 5.966 0 0 1-11.93 0c0-.465.059-.916.16-1.349.178-1.05.605-2.228 1.377-3.555 3.151-5.421.281-9.582-1.808-10.981-1.568-1.047-3.064-1.39-4.453-1.382v4.365l.089-.001c.532 0 1.115.128 1.656.456.819.496 2.448 2.052.885 5.246-.402.822-2.214 3.632-2.25 7.066l.005.13c0 5.694 4.615 10.308 10.308 10.308s10.308-4.614 10.308-10.308c0-5.693-4.615-10.307-10.308-10.307" fill="#A34C8D"/><path d="M117.547 46.4a14.906 14.906 0 0 1-1.873 4.045 5.962 5.962 0 0 1 5.117 5.898 5.965 5.965 0 1 1-11.93 0c0-.105.01-.206.015-.31a5.952 5.952 0 0 1 1.312-3.435c.127-.157.339-.396.531-.594.145-.147.296-.281.296-.281a12.26 12.26 0 0 0 4.491-9.497c0-6.785-5.5-12.285-12.284-12.285a12.26 12.26 0 0 0-9.583 4.598s-.096.114-.211.238a3.51 3.51 0 0 1-1.942 1.052c-.641.117-1.23.118-2.347.118-3.52 0-4.114.003-6.327.004v4.138h8.311s3.43.147 5.823-2.744a7.951 7.951 0 1 1 11.282 11.058l-.291.276a10.276 10.276 0 0 0-3.39 8.405c.381 5.347 4.836 9.566 10.279 9.566 5.692 0 10.308-4.615 10.308-10.307 0-4.752-3.216-8.748-7.587-9.943" fill="#F7C565"/><path d="M90.963 42.784l-.035-.001c.058 1.74.679 4.592 2.659 7.095a12.23 12.23 0 0 0 8.322 4.558c.055.004.101.01.146.014.225-1.528.716-2.97 1.427-4.275-2.372.085-4.31-.878-5.694-2.15-1.466-1.355-2.675-3.644-2.505-6.203a10.135 10.135 0 0 1-4.32.962M84.56 27.658a14.25 14.25 0 0 0 3.549 1.344l.242.054a14.358 14.358 0 0 0 1.03.183c.1.013.2.029.301.042.251.029.503.051.756.068.02.003.04.003.06.005.262.018.526.032.791.037 3.346.067 7.866-1.319 10.863-4.886-1.022-1.157-1.839-2.295-2.465-3.888-1.538 2.263-4.287 4.422-8.592 4.422-1.338 0-3.287-.534-4.746-1.338a8.05 8.05 0 0 1-.707-.437c-1.221-.865-3.936-3.102-7.687-3.166a9.754 9.754 0 0 0-1.679.116c-4.909.767-7.213 4.077-7.819 7.305h5.22c.616-1.568 2.085-2.878 4.007-3.044 2.479-.216 4.282 1.578 5.168 2.166.58.386 1.148.723 1.708 1.017" fill="#E2644A"/><path d="M81.886 18.278s-.019-.06-.056-.195a9.99 9.99 0 0 1-.475-3.052c0-5.533 4.486-10.02 10.02-10.02a10.018 10.018 0 0 1 10.02 9.998s-.016.597-.016.901c0 2.45.883 4.691 2.346 6.428a10.033 10.033 0 0 0 1.972 1.793 9.944 9.944 0 0 0 5.669 1.765c5.509 0 9.976-4.462 9.985-9.97v-.016c0-5.514-4.471-9.985-9.985-9.985-1.792 0-3.47.474-4.924 1.299a16.863 16.863 0 0 1 1.517 4.201 5.6 5.6 0 0 1 3.407-1.153 5.64 5.64 0 0 1 0 11.277 5.612 5.612 0 0 1-3.784-1.466 5.619 5.619 0 0 1-1.855-4.172l-.002-.902a14.284 14.284 0 0 0-2.785-8.471C100.327 2.988 96.12.681 91.375.681c-7.925 0-14.35 6.426-14.35 14.35 0 .813.071 1.607.2 2.382 1.643-.083 3.161.224 4.661.865" fill="#4CB9B0"/><path fill="#3B3A39" d="M140.146 54.465h-8.467V39.171h8.311v1.086h-7.115v5.541h6.717v1.086h-6.717v6.495h7.271v1.086m16.292 0h-1.154v-6.251c0-1.285-.22-3.214-2.216-3.214-1.995 0-3.059 1.929-3.059 4.101v5.364h-1.153v-6.251c0-1.73-.443-3.214-2.215-3.214-1.995 0-3.06 1.929-3.06 4.101v5.364h-1.152V44.18h1.152v1.907c.421-1.131 1.73-2.084 3.104-2.084 1.617 0 2.615.82 3.058 2.15.665-1.33 1.884-2.15 3.258-2.15 2.838 0 3.437 2.15 3.437 4.211v6.251m7.913.221c-1.486 0-2.881-.597-3.879-2.15v6.141h-1.154V44.181h1.154v1.995c.865-1.463 2.283-2.173 3.835-2.173 3.169 0 5.097 2.327 5.097 5.363 0 3.06-1.995 5.32-5.053 5.32m-.044-9.685c-2.505 0-3.879 1.949-3.879 4.365 0 2.351 1.374 4.278 3.879 4.278 2.481 0 3.879-1.883 3.879-4.278 0-2.371-1.398-4.365-3.879-4.365m7.314 9.463h1.153V39.17h-1.153zm8.622.222c-2.926 0-5.253-2.216-5.253-5.32 0-3.102 2.327-5.363 5.253-5.363 2.948 0 5.276 2.261 5.276 5.363 0 3.104-2.328 5.32-5.276 5.32m0-9.685c-2.482 0-4.034 1.928-4.034 4.321 0 2.372 1.552 4.322 4.034 4.322 2.505 0 4.057-1.95 4.057-4.322 0-2.393-1.552-4.321-4.057-4.321m15.362-.82l-5.209 12.677c-.709 1.707-1.597 1.929-2.306 1.929-.709 0-1.24-.266-1.24-.266l.22-1.108s.399.221 1.02.221 1.042-.221 1.529-1.617l.599-1.707-4.145-10.129h1.219l3.546 8.954 3.547-8.954h1.22m15.227 10.284h-1.153v-6.251c0-1.285-.221-3.214-2.216-3.214s-3.059 1.929-3.059 4.101v5.364h-1.153v-6.251c0-1.73-.443-3.214-2.216-3.214-1.995 0-3.059 1.929-3.059 4.101v5.364h-1.152V44.18h1.152v1.907c.421-1.131 1.729-2.084 3.103-2.084 1.618 0 2.616.82 3.059 2.15.665-1.33 1.884-2.15 3.258-2.15 2.838 0 3.436 2.15 3.436 4.211v6.251m11.57-4.876h-8.355c.11 2.437 1.484 4.055 3.811 4.055 2.329 0 3.614-1.33 3.614-1.33l.553.821s-1.285 1.551-4.277 1.551-4.92-2.216-4.92-5.364c0-3.17 2.261-5.319 4.986-5.319 2.705 0 4.656 2.04 4.656 4.809 0 .333-.068.777-.068.777m-1.107-.997c0-1.33-.998-3.591-3.547-3.591-2.55 0-3.591 2.149-3.657 3.591h7.204m11.282 5.873h-1.175V48.37c0-1.663-.288-3.37-2.504-3.37-2.217 0-3.281 1.929-3.281 4.367v5.098h-1.153V44.18h1.153v1.907c.51-1.22 1.84-2.084 3.325-2.084 2.948 0 3.635 1.884 3.635 4.322v6.14m6.983-.111s-.555.333-1.553.333c-.997 0-1.572-.422-1.95-1.109-.355-.687-.377-1.44-.377-3.103v-5.209h-1.552v-1.041h1.552v-3.281h1.175v3.281h2.593v1.041h-2.615v5.896c0 1.131.133 2.483 1.507 2.483.665 0 1.108-.288 1.108-.288l.112.997"/></g></svg>