<svg width="357" height="272" xmlns="http://www.w3.org/2000/svg" xmlns:xlink="http://www.w3.org/1999/xlink"><defs><path id="a" d="M0 .23h265.91v111.81H0z"/></defs><g fill="none" fill-rule="evenodd"><path d="M350.92 196.25a110.1 110.1 0 0 0 5.62-37.23c-44.6-15.5-73.04-56.9-74.05-101.7l-1.5-.51c-57.82-19.2-120.25 12.12-139.44 69.94-19.2 57.81 12.12 120.24 69.93 139.44 57.82 19.19 120.25-12.12 139.44-69.94" fill="#45C2BF"/><path d="M189.21 29.46a29.46 29.46 0 1 1-58.92 0 29.46 29.46 0 0 1 58.92 0" fill="#B2519E"/><g transform="translate(0 75.83)"><mask id="b" fill="#fff"><use xlink:href="#a"/></mask><path d="M220.6 39.02l-.25.93a34.41 34.41 0 0 1-9.67 15.82c-7.59 7.03-28.58 19.3-57.08-6.45-7.33-6.62-31.1-33.8-66.61-44.4l-1.38-.34A110.95 110.95 0 0 0 0 14.75l26.63 38.87a64.14 64.14 0 0 1 46-4.03 64.23 64.23 0 0 1 13.53 5.69c10.36 4.97 21.31 12.91 32.78 24.88 46.87 48.86 98.6 31.47 119.35 13.96 15.55-13.15 23.55-27.65 27.62-42.09l-45.3-13z" fill="#FFD866" mask="url(#b)"/></g></g></svg>