<svg width="143" height="240" xmlns="http://www.w3.org/2000/svg" xmlns:xlink="http://www.w3.org/1999/xlink"><defs><path id="a" d="M.25.69h168.86v167.63H.25z"/><path id="c" d="M.25.18h45.09v44.76H.25z"/></defs><g fill="none" fill-rule="evenodd"><g transform="scale(-1 1) rotate(75 -49.25 -52.03)"><mask id="b" fill="#fff"><use xlink:href="#a"/></mask><path d="M164.8 110.9a83.07 83.07 0 0 0 4.29-28.28 83.88 83.88 0 0 1-56.66-77.24l-1.15-.4C67.04-9.6 19.26 14.18 4.58 58.11c-14.7 43.92 9.27 91.34 53.51 105.92 44.24 14.58 92.02-9.2 106.7-53.12" fill="#F26B49" mask="url(#b)"/></g><path d="M122.8 193.72a83.88 83.88 0 0 1-59.94-74.73 83.88 83.88 0 0 1 59.95 74.73" fill="#FFD866"/><path d="M26.02 237.98c18.54 4.96 37.62-6.15 42.62-24.82s-5.96-37.84-24.5-42.8c-18.54-4.97-37.62 6.14-42.62 24.81-5 18.68 5.97 37.84 24.5 42.8" fill="#45C2BF"/><g transform="scale(-1 1) rotate(75 -22.11 -35.66)"><mask id="d" fill="#fff"><use xlink:href="#c"/></mask><path d="M45.34 22.56A22.46 22.46 0 0 1 22.8 44.94 22.46 22.46 0 0 1 .25 22.56 22.46 22.46 0 0 1 22.8.18a22.46 22.46 0 0 1 22.54 22.38" fill="#B2519E" mask="url(#d)"/></g></g></svg>