<svg width="333" height="242" xmlns="http://www.w3.org/2000/svg" xmlns:xlink="http://www.w3.org/1999/xlink"><defs><path id="a" d="M.33.99h241.49v241.49H.33z"/><path id="c" d="M0 .1h232.27V182H0z"/></defs><g fill="none" fill-rule="evenodd"><g transform="translate(91 -1)"><mask id="b" fill="#fff"><use xlink:href="#a"/></mask><path d="M241.82 121.74c0 66.68-54.06 120.74-120.75 120.74C54.4 242.48.33 188.42.33 121.74.33 55.05 54.39.99 121.07.99c66.69 0 120.75 54.06 120.75 120.75" fill="#45C2BF" mask="url(#b)"/></g><path d="M235.72 120.74a23.65 23.65 0 1 1-47.3 0 23.65 23.65 0 0 1 47.3 0" fill="#B2519E"/><g transform="translate(0 60)"><mask id="d" fill="#fff"><use xlink:href="#c"/></mask><path d="M99.67 104.81c3.64 9.73 8.6 19.03 14.83 27.67.4.56.81 1.1 1.22 1.65a118.13 118.13 0 0 0 5.43 6.73l1.65 1.9c1.4 1.55 2.85 3.06 4.34 4.54l.35.36c1.54 1.53 3.11 3.05 4.73 4.52 20.5 18.6 56.23 34.51 94.3 28.55-.09-12.77 1-24.3 5.75-37.64-21.89 5.75-50.76 4.28-77.61-19.1-8.34-7.28-17.6-21.2-22.33-34.14a62.96 62.96 0 0 1-2.03-6.56c-2.93-12.03-7.7-40.73-30.74-61.51-3.32-2.99-7-5.81-11.1-8.4C53.65-8.51 21.3-.38 0 16.45l32.56 28.36c12.36-6.43 28.63-6.62 41.52 2.79 16.64 12.12 18.14 33.1 20.47 41.59a158.33 158.33 0 0 0 5.12 15.62" fill="#F26B49" mask="url(#d)"/></g></g></svg>