<svg width="117" height="72" viewBox="0 0 117 72" xmlns="http://www.w3.org/2000/svg" xmlns:xlink="http://www.w3.org/1999/xlink"><defs><path id="a" d="M.65.22H40.4v34.39H.65z"/></defs><g fill="none" fill-rule="evenodd"><path d="M104.34 16a1.75 1.75 0 1 1 0-3.5 1.75 1.75 0 0 1 1.44 2.76 1.74 1.74 0 0 1-1.44.75" fill="#46C3BF"/><path d="M87.6 63.6c-.82 0-1.54-.58-1.7-1.38a1.76 1.76 0 1 1 1.7 1.39" fill="#B3519E"/><path d="M107.58 53.9a1.75 1.75 0 1 1 .36-.04c-.11.03-.23.04-.36.04" fill="#FFD966"/><path d="M96.71 41.17a2.24 2.24 0 1 1 .46-.05c-.15.03-.3.05-.46.05" fill="#F16C4A"/><path d="M85.6 15.9a2.46 2.46 0 1 1 .43-.04 2.5 2.5 0 0 1-.43.03" fill="#46C3BF"/><path d="M39.85 42.48h-.39c-1.94.03-3 .86-3 2.33 0 .94.53 2.07 3 2.11h.18c.9 0 1.77-.1 2.89-.21l.6-.07v-3.9l-.14-.02c-1-.16-2.06-.24-3.14-.24m-.7 7.91h-.49c-3.94-.05-6.3-2.24-6.3-5.85 0-2.38 1.2-5.23 6.92-5.23 1.64 0 2.53.11 3.47.23l.37.05v-.6c0-1.29-.97-1.97-2.88-2.04l-.95-.01c-1.46 0-2.73.13-4.47.47l-.23-3.77c2.14-.4 3.25-.6 5.2-.6h.44c4.77.06 7.62 2.22 7.62 5.77V49.6c-.74.14-4.53.8-8.7.8M22.76 37.01a4.55 4.55 0 0 0-4.5 4.7c0 2.67 1.94 4.67 4.5 4.67a4.72 4.72 0 0 0 4.52-4.67c0-2.63-1.99-4.7-4.52-4.7m0 13.35c-5.07 0-8.9-3.72-8.9-8.65 0-4.94 3.83-8.67 8.9-8.67 5.08 0 8.92 3.73 8.92 8.67 0 4.93-3.84 8.65-8.92 8.65m35.22-.01c-4.99-.1-8.6-3.74-8.6-8.64 0-4.88 3.5-8.44 8.53-8.66h.06l.37-.01c1.61 0 3.51.48 4 .6l-.18 3.77a14.83 14.83 0 0 0-3.91-.46c-2.6.04-4.48 2.05-4.48 4.76a4.64 4.64 0 0 0 4.97 4.74c1.43 0 2.96-.33 3.49-.45l.17 3.76c-.46.13-2.24.6-4.2.6h-.22zm-49.38 0c-4.98-.1-8.6-3.74-8.6-8.64 0-4.88 3.51-8.44 8.54-8.66h.06l.36-.01c1.62 0 3.51.48 4 .6l-.18 3.77a14.83 14.83 0 0 0-3.9-.46C6.27 37 4.4 39 4.4 41.71a4.64 4.64 0 0 0 4.96 4.74c1.44 0 2.97-.33 3.5-.45l.17 3.76c-.46.13-2.24.6-4.21.6H8.6z" fill="#404041"/><path d="M91.62 44.36a7.44 7.44 0 0 1-2.34-5.81 9.5 9.5 0 0 1-4.05.9h-.03a11.46 11.46 0 0 0 10.43 10.93c.2-1.43.66-2.78 1.33-4a7.42 7.42 0 0 1-5.34-2.02" fill="#F16C4A"/><path d="M104.35 4.91c-1.68 0-3.25.45-4.62 1.22a15.8 15.8 0 0 1 1.43 3.94 5.28 5.28 0 1 1-2.1 4.2v-.85a13.4 13.4 0 0 0-2.6-7.93 13.43 13.43 0 0 0-24.29 7.96c0 .76.07 1.5.19 2.23a9.64 9.64 0 0 1 4.37.8l-.06-.17A9.39 9.39 0 1 1 95 13.43l-.01.84a9.32 9.32 0 0 0 4.05 7.7 9.36 9.36 0 0 0 14.67-7.69v-.01a9.36 9.36 0 0 0-9.36-9.36" fill="#46C3BF"/><path d="M68.69 28.86h-4.72v15.68c0 1.82.69 3.34 2 4.38a7.13 7.13 0 0 0 4.44 1.44c1.09 0 2.15-.18 2.67-.28v-4.05c-.46.06-1.18.12-2.1.12-.54 0-2.3-.27-2.3-2.8v-6.43h4.4v-3.87h-4.4v-4.2z" fill="#404041"/><path d="M87.61 52.19h-.41c0 .66.14 2.1-.7 4.18a5.57 5.57 0 0 1 6.7 5.48 5.59 5.59 0 1 1-11.03-1.26c.17-.98.57-2.09 1.29-3.33 2.95-5.08.26-8.98-1.7-10.29a7.23 7.23 0 0 0-4.26-1.3v4.1h.18a3 3 0 0 1 1.55.42c.76.47 2.3 1.92.83 4.92-.38.77-2.08 3.4-2.11 6.62v.12a9.66 9.66 0 1 0 9.66-9.66" fill="#B3519E"/><g transform="translate(76.85 27.2)"><mask id="b" fill="#fff"><use xlink:href="#a"/></mask><path d="M33.3 15.64c-.4 1.36-1 2.63-1.76 3.79a5.59 5.59 0 1 1-6.39 5.52l.02-.29a5.57 5.57 0 0 1 1.72-3.77l.28-.27A11.51 11.51 0 1 0 10.9 4.52l-.2.23c-.27.3-.86.8-1.82.98-.6.11-1.15.11-2.2.11H.65v3.88h7.88s3.22.14 5.46-2.57a7.44 7.44 0 0 1 13.33 4.58 7.44 7.44 0 0 1-2.76 5.78l-.27.26a9.63 9.63 0 0 0-3.18 7.88A9.66 9.66 0 1 0 33.3 15.64" fill="#FFD966" mask="url(#b)"/></g><path d="M79.23 25.28c1.03.56 2.15.98 3.33 1.26l.22.05a14.39 14.39 0 0 0 .97.17l.28.04.7.06h.06l.74.04c3.14.06 7.38-1.24 10.18-4.58a11.74 11.74 0 0 1-2.3-3.64 9.38 9.38 0 0 1-13.17 2.48c-1.14-.81-3.68-2.9-7.2-2.97-.5 0-1.03.03-1.57.11-4.43.7-6.59 3.6-7.25 6.5h4.96a4.46 4.46 0 0 1 3.6-2.5c2.33-.2 4.02 1.47 4.85 2.02.54.37 1.08.68 1.6.96" fill="#F16C4A"/></g></svg>